<svg id="MC" xmlns="http://www.w3.org/2000/svg" xmlns:xlink="http://www.w3.org/1999/xlink" viewBox="0 0 864 1440.19"><defs><style>.cls-1,.cls-11{fill:none;}.cls-2,.cls-3{fill:#383838;}.cls-2{stroke:#383838;stroke-miterlimit:10;stroke-width:8px;}.cls-4{fill:#fff;}.cls-5{clip-path:url(#clip-path);}.cls-6{fill:#72c8f1;}.cls-7{fill:#f63;}.cls-8{fill:#6cf;}.cls-9{fill:#ed3868;}.cls-10{fill:#9f6;}.cls-11{stroke:#000;stroke-linecap:round;stroke-linejoin:round;stroke-width:9px;}</style><clipPath id="clip-path" transform="translate(-48.74 -55.92)"><rect class="cls-1" x="143.09" y="440.61" width="675.31" height="576.16" rx="27" ry="27"/></clipPath></defs><title>Flat-Logo</title><path class="cls-2" d="M537.87,382.17,817.94,102.32l2.91-2.91,4,.8a20.55,20.55,0,0,0,4,.39,20.34,20.34,0,1,0-20-16.37l.8,4-2.92,2.91-291.2,291h-59l-291.2-291-2.92-2.91.8-4a20.37,20.37,0,1,0-20,16.37,20.55,20.55,0,0,0,4-.39l4-.8,2.91,2.91L434.31,382.17H62.24v719.37h837V382.17Z" transform="translate(-48.74 -55.92)"/><rect class="cls-3" y="310.04" width="864" height="750.61" rx="27" ry="27"/><path class="cls-4" d="M818.4,987a29.88,29.88,0,0,1-29.79,29.79H172.88A29.88,29.88,0,0,1,143.09,987V470.56a29.88,29.88,0,0,1,29.79-29.79H788.6a29.88,29.88,0,0,1,29.79,29.79Z" transform="translate(-48.74 -55.92)"/><g id="Layer_3" data-name="Layer 3"><g class="cls-5"><path class="cls-6" d="M334.37,561.74a10.56,10.56,0,0,1-4.15-.84l-50.27-21.31a9.62,9.62,0,0,1-5.26-5.25,8.78,8.78,0,0,1,.26-7.19,9.74,9.74,0,0,1,5.62-4.91,10.62,10.62,0,0,1,7.69.24l50.27,21.31a9.62,9.62,0,0,1,5.26,5.25,8.78,8.78,0,0,1-.25,7.19A10.14,10.14,0,0,1,334.37,561.74ZM284.1,530a1.15,1.15,0,0,0-.38.07,1,1,0,0,0-.61.53.94.94,0,0,0,0,.78,1,1,0,0,0,.57.57l50.27,21.31a1.14,1.14,0,0,0,.45.09,1.1,1.1,0,0,0,1-.6.94.94,0,0,0,0-.78,1,1,0,0,0-.57-.57l-50.27-21.31A1.15,1.15,0,0,0,284.1,530Z" transform="translate(-48.74 -55.92)"/><path class="cls-6" d="M403.73,461.73a10.81,10.81,0,0,1-1.92-.17l-54.19-9.84c-5.44-1-9-5.93-8-11s6.34-8.41,11.78-7.43l54.19,9.84c5.44,1,9,5.93,8,11A9.92,9.92,0,0,1,403.73,461.73Zm-54.19-20.26a1.08,1.08,0,0,0-1.07.82,1,1,0,0,0,.86,1.19l54.19,9.84a1.07,1.07,0,0,0,1.28-.81,1,1,0,0,0-.86-1.19l-54.19-9.84Z" transform="translate(-48.74 -55.92)"/><path class="cls-6" d="M313.75,514.76a10.29,10.29,0,0,1-8.25-4A9,9,0,0,1,308,497.66l8-5.2a10.55,10.55,0,0,1,7.52-1.54,10.07,10.07,0,0,1,6.48,3.88,9,9,0,0,1-2.5,13.08l-8,5.2A10.48,10.48,0,0,1,313.75,514.76Zm8-15.61a1.11,1.11,0,0,0-.62.18l-8,5.2a1,1,0,0,0-.27,1.42,1.14,1.14,0,0,0,1.51.25l8-5.2a1,1,0,0,0,.27-1.42,1.08,1.08,0,0,0-.7-.42Z" transform="translate(-48.74 -55.92)"/><path class="cls-6" d="M155.49,489.27a10.55,10.55,0,0,1-5.36-1.45,9.05,9.05,0,0,1-3.14-13l5.19-7.69a10.49,10.49,0,0,1,13.86-2.93,9.05,9.05,0,0,1,3.14,13L164,484.89A10.19,10.19,0,0,1,155.49,489.27Zm5.2-18.1a1.11,1.11,0,0,0-.92.47l-5.19,7.69a1,1,0,0,0,.34,1.4,1.13,1.13,0,0,0,1.5-.32l5.19-7.69a1,1,0,0,0-.34-1.4A1.14,1.14,0,0,0,160.69,471.17Z" transform="translate(-48.74 -55.92)"/><path class="cls-6" d="M242.07,522.84a9.9,9.9,0,0,1-9.87-7.65,8.84,8.84,0,0,1,1.57-7,10.05,10.05,0,0,1,6.44-3.94l9.56-1.69a10.54,10.54,0,0,1,7.53,1.46,9.32,9.32,0,0,1,4.22,6,8.84,8.84,0,0,1-1.57,7,10.06,10.06,0,0,1-6.44,3.94L244,522.67A10.77,10.77,0,0,1,242.07,522.84Zm9.57-12.11-.21,0-9.56,1.7a1.07,1.07,0,0,0-.7.43,1,1,0,0,0-.17.76,1.07,1.07,0,0,0,1.27.81l9.56-1.7a1.07,1.07,0,0,0,.7-.43,1,1,0,0,0,.17-.76,1,1,0,0,0-.46-.65A1.12,1.12,0,0,0,251.65,510.73Z" transform="translate(-48.74 -55.92)"/><path class="cls-6" d="M186.51,535.66a10.28,10.28,0,0,1-2,9,8.85,8.85,0,0,1-6.45,3.23,9.3,9.3,0,0,1-6.86-2.63l-18.66-17.71a10.55,10.55,0,0,1-3.24-7,10.07,10.07,0,0,1,2.27-7.2,8.85,8.85,0,0,1,6.45-3.23,9.3,9.3,0,0,1,6.86,2.63l18.66,17.71A10.49,10.49,0,0,1,186.51,535.66ZM157.72,520.4a1.11,1.11,0,0,0,.32.55l18.66,17.72a1,1,0,0,0,.74.28,1,1,0,0,0,.7-.35,1.14,1.14,0,0,0-.11-1.53l-18.66-17.71a1,1,0,0,0-.74-.28,1,1,0,0,0-.7.35,1.08,1.08,0,0,0-.25.78A1.2,1.2,0,0,0,157.72,520.4Z" transform="translate(-48.74 -55.92)"/><path class="cls-6" d="M393.39,695a10.62,10.62,0,0,1-3.88-.73l-24.24-9.5a9.67,9.67,0,0,1-5.42-5.11,8.77,8.77,0,0,1,0-7.19,10.33,10.33,0,0,1,13.15-5l24.24,9.5a9.67,9.67,0,0,1,5.42,5.11,8.77,8.77,0,0,1,0,7.19A10.06,10.06,0,0,1,393.39,695ZM369.16,675.1a1.09,1.09,0,0,0-1,.62.94.94,0,0,0,0,.78,1,1,0,0,0,.58.55l24.23,9.5a1.13,1.13,0,0,0,.42.08,1.1,1.1,0,0,0,1-.62.94.94,0,0,0,0-.78,1,1,0,0,0-.58-.55l-24.23-9.5A1.14,1.14,0,0,0,369.16,675.1Z" transform="translate(-48.74 -55.92)"/><path class="cls-6" d="M566.58,459.48a10.16,10.16,0,0,1-9-5.22,8.85,8.85,0,0,1-.74-6.49h0a9.54,9.54,0,0,1,5.28-6.1l23.54-10.91A10.4,10.4,0,0,1,599.12,435a9.14,9.14,0,0,1-4.54,12.59L571,458.51A10.57,10.57,0,0,1,566.58,459.48Zm23.52-21.32a1.14,1.14,0,0,0-.48.11l-23.54,10.91a1,1,0,0,0-.57.66h0a.94.94,0,0,0,.08.7A1.12,1.12,0,0,0,567,451l23.54-10.91a1,1,0,0,0,.49-1.37A1.1,1.1,0,0,0,590.11,438.16Z" transform="translate(-48.74 -55.92)"/><path class="cls-6" d="M298.65,451.88a10.67,10.67,0,0,1-2.58-.32,9.93,9.93,0,0,1-6.11-4.35,8.8,8.8,0,0,1-1-7.13l6.7-23.75a9.44,9.44,0,0,1,4.67-5.73,10.57,10.57,0,0,1,7.62-1A9.93,9.93,0,0,1,314,414a8.8,8.8,0,0,1,1,7.13l-6.7,23.75A10,10,0,0,1,298.65,451.88Zm6.69-34.16a1.11,1.11,0,0,0-.53.14,1,1,0,0,0-.51.62l-6.7,23.75a.94.94,0,0,0,.11.77,1.06,1.06,0,0,0,.66.47,1.14,1.14,0,0,0,.28,0,1.08,1.08,0,0,0,1-.76L306.4,419a.94.94,0,0,0-.11-.77,1.06,1.06,0,0,0-.66-.47A1.19,1.19,0,0,0,305.34,417.72Z" transform="translate(-48.74 -55.92)"/><path class="cls-6" d="M512.62,686.9a10.74,10.74,0,0,1-2.26-1.26l-21.15-15.41c-4.46-3.25-5.48-9.23-2.28-13.34s9.44-4.79,13.9-1.55L522,670.76c4.46,3.25,5.48,9.23,2.28,13.34A10,10,0,0,1,512.62,686.9Zm-17.21-25.05a1.08,1.08,0,0,0-1.26.3,1,1,0,0,0,.25,1.44L515.54,679a1.09,1.09,0,0,0,1.5-.17,1,1,0,0,0-.25-1.44L495.65,662A1.17,1.17,0,0,0,495.41,661.84Z" transform="translate(-48.74 -55.92)"/><path class="cls-6" d="M409.18,515.14h0a26.74,26.74,0,0,1-6.16-.7c-4.79-1.11-9-2.11-12.94-3.07a15.81,15.81,0,0,0-9.92,1.85,10.53,10.53,0,0,1-14.06-2,8.88,8.88,0,0,1-1.84-7,9.26,9.26,0,0,1,4-6.15c7.05-4.85,18.34-6.92,26.84-4.92,3.89,1,8,1.91,12.83,3,2.37.56,6.18-.74,7.22-2.08,2.57-3.26,5.08-6.64,7.48-10.07,5.85-8.23,16.91-13.27,26.32-12,4.62.64,8.89,1.29,13.09,2a5.62,5.62,0,0,0,4.77-2.9c1.89-4.2,3.71-8.5,5.42-12.81,4.33-10.7,15.75-17.5,26-15.5a213.69,213.69,0,0,1,24.61,6.35,9.8,9.8,0,0,1,5.76,4.77,8.78,8.78,0,0,1,.46,7.18c-1.81,4.89-7.54,7.5-12.78,5.81a192.05,192.05,0,0,0-21.86-5.66,6.64,6.64,0,0,0-3.36,3.64c-1.8,4.52-3.71,9.05-5.69,13.45-4.32,9.76-16.13,16-26.9,14.17-4-.67-8.08-1.29-12.42-1.89-1.21-.16-4.92,1.34-6.63,3.75-2.58,3.7-5.3,7.35-8,10.83C426.69,511.24,418,515.14,409.18,515.14Zm-21.07-12.33a18.52,18.52,0,0,1,4.19.44c3.92,1,8.12,2,12.89,3.06a17.23,17.23,0,0,0,4,.45c5.84,0,12-2.67,14.94-6.48,2.67-3.38,5.28-6.9,7.79-10.49,3-4.2,9.72-8.22,15.43-7.43,4.43.61,8.59,1.25,12.7,1.93a16.57,16.57,0,0,0,17-9.14c1.94-4.31,3.81-8.73,5.57-13.16,2.39-5.92,8.36-9.93,13.31-9a201.46,201.46,0,0,1,23.24,6,1.11,1.11,0,0,0,1.38-.63.94.94,0,0,0,0-.78,1,1,0,0,0-.62-.52A204.19,204.19,0,0,0,496.39,451c-6-1.15-13,3.43-15.78,10.24-1.74,4.39-3.61,8.8-5.54,13.09-2.56,5.79-9.65,8.78-14.64,7.92-4.09-.69-8.28-1.32-12.79-1.95-5.93-.79-13.65,2.86-17.54,8.33-2.47,3.54-5.08,7.05-7.73,10.41-3.25,4.2-10.88,6.63-16.64,5.26-4.89-1.13-9-2.1-12.88-3.05-5.89-1.39-14.38.17-19.3,3.55a1,1,0,0,0-.43.67,1,1,0,0,0,.2.76,1.14,1.14,0,0,0,1.52.22C378.15,504.2,383.45,502.81,388.11,502.81Z" transform="translate(-48.74 -55.92)"/><path class="cls-6" d="M291.12,737a10.57,10.57,0,0,1-5.24-1.38,9.4,9.4,0,0,1-4.53-5.81,8.81,8.81,0,0,1,1.2-7.1l28.8-44a10,10,0,0,1,6.22-4.23,10.58,10.58,0,0,1,7.6,1.12,9.4,9.4,0,0,1,4.53,5.81,8.81,8.81,0,0,1-1.2,7.1l-28.8,44A10.15,10.15,0,0,1,291.12,737Zm28.81-54.43a1.18,1.18,0,0,0-.26,0,1.07,1.07,0,0,0-.67.46l-28.8,44a.94.94,0,0,0-.13.77,1,1,0,0,0,.49.63,1.13,1.13,0,0,0,1.5-.34l28.8-44a.94.94,0,0,0,.13-.77,1,1,0,0,0-.49-.63A1.12,1.12,0,0,0,319.93,682.6Z" transform="translate(-48.74 -55.92)"/><path class="cls-6" d="M247.14,711c-6.53,0-11.84-5-11.84-11.07s5.31-11.07,11.84-11.07,11.84,5,11.84,11.07S253.67,711,247.14,711Zm0-13.76a2.7,2.7,0,1,0,2.88,2.69A2.79,2.79,0,0,0,247.14,697.2Z" transform="translate(-48.74 -55.92)"/><path class="cls-6" d="M446.87,582.34c-6.53,0-11.84-5-11.84-11.07s5.31-11.07,11.84-11.07,11.84,5,11.84,11.07S453.4,582.34,446.87,582.34Zm0-13.76a2.7,2.7,0,1,0,2.88,2.69A2.79,2.79,0,0,0,446.87,568.58Z" transform="translate(-48.74 -55.92)"/><path class="cls-6" d="M368.62,552.22c-6.53,0-11.84-5-11.84-11.07s5.31-11.07,11.84-11.07,11.84,5,11.84,11.07S375.15,552.22,368.62,552.22Zm0-13.76a2.7,2.7,0,1,0,2.88,2.69A2.79,2.79,0,0,0,368.62,538.46Z" transform="translate(-48.74 -55.92)"/><path class="cls-6" d="M767.56,447.11a10.41,10.41,0,0,1-7.4-3l-37.39-38a9,9,0,0,1-2.65-6.75,9.09,9.09,0,0,1,3.24-6.53,10.4,10.4,0,0,1,7.22-2.48,10.29,10.29,0,0,1,7,3l37.39,38a9,9,0,0,1,2.65,6.75,9.09,9.09,0,0,1-3.24,6.53A10.41,10.41,0,0,1,767.56,447.11Zm-37.39-48.37a1.1,1.1,0,0,0-.73.27,1,1,0,0,0-.35.71,1,1,0,0,0,.29.73l37.39,38a1.14,1.14,0,0,0,1.53.06,1,1,0,0,0,.35-.71,1,1,0,0,0-.29-.73l-37.39-38a1.1,1.1,0,0,0-.75-.33Z" transform="translate(-48.74 -55.92)"/><path class="cls-6" d="M585.56,561.75a10.51,10.51,0,0,1-6.37-2.13l-42.66-32.74a9,9,0,0,1-1.39-13.22,10.56,10.56,0,0,1,14.15-1.3l42.66,32.74a9,9,0,0,1,1.39,13.22A10.31,10.31,0,0,1,585.56,561.75ZM542.9,518.6a1.12,1.12,0,0,0-.84.37,1,1,0,0,0,.15,1.43l42.66,32.74a1.14,1.14,0,0,0,1.53-.14,1,1,0,0,0-.15-1.43l-42.66-32.74A1.13,1.13,0,0,0,542.9,518.6Z" transform="translate(-48.74 -55.92)"/><path class="cls-6" d="M499.11,545.34a10.63,10.63,0,0,1-3.64-.64l-9.07-3.3a9.22,9.22,0,0,1-5.72-12.16A9.64,9.64,0,0,1,486,524a10.63,10.63,0,0,1,7.69-.16l9.06,3.3a9.22,9.22,0,0,1,5.72,12.16A10,10,0,0,1,499.11,545.34ZM490,531.63a1.15,1.15,0,0,0-.44.09,1,1,0,0,0-.58.56,1,1,0,0,0,.62,1.32l9.07,3.3a1.14,1.14,0,0,0,.39.07,1.09,1.09,0,0,0,1-.65,1,1,0,0,0-.62-1.32l-9.07-3.3A1.15,1.15,0,0,0,490,531.63Z" transform="translate(-48.74 -55.92)"/><path class="cls-6" d="M712.52,489.27a10.55,10.55,0,0,1-5.36-1.45,9.05,9.05,0,0,1-3.14-13l5.19-7.69a10.49,10.49,0,0,1,13.86-2.93,9.05,9.05,0,0,1,3.14,13L721,484.89A10.19,10.19,0,0,1,712.52,489.27Zm5.2-18.1a1.11,1.11,0,0,0-.92.47l-5.19,7.69a1,1,0,0,0,.34,1.4,1.13,1.13,0,0,0,1.5-.32l5.19-7.69a1,1,0,0,0-.34-1.4A1.14,1.14,0,0,0,717.72,471.17Z" transform="translate(-48.74 -55.92)"/><path class="cls-6" d="M784.79,515.79a9.9,9.9,0,0,1-9.87-7.65,8.84,8.84,0,0,1,1.57-7,10.05,10.05,0,0,1,6.44-3.94l9.56-1.69a10.54,10.54,0,0,1,7.53,1.46,9.32,9.32,0,0,1,4.22,6,8.84,8.84,0,0,1-1.57,7,10.05,10.05,0,0,1-6.44,3.94l-9.56,1.69A10.79,10.79,0,0,1,784.79,515.79Zm9.57-12.11-.21,0-9.56,1.7a1.07,1.07,0,0,0-.7.43,1,1,0,0,0-.17.76,1.07,1.07,0,0,0,1.27.81l9.56-1.7a1.07,1.07,0,0,0,.7-.43,1,1,0,0,0,.17-.76,1,1,0,0,0-.46-.65A1.12,1.12,0,0,0,794.36,503.68Z" transform="translate(-48.74 -55.92)"/><path class="cls-6" d="M554.11,492.13h-.39l-9.72-.34a10.8,10.8,0,0,1-1.87-.23h0a9.53,9.53,0,0,1-7.8-9.51,9.09,9.09,0,0,1,3.21-6.54,10.44,10.44,0,0,1,7.21-2.5l9.72.34a10.29,10.29,0,0,1,7,3,9,9,0,0,1,2.68,6.75,9.08,9.08,0,0,1-3.21,6.54A10.37,10.37,0,0,1,554.11,492.13Zm-10-8.74.21,0,9.72.34a1.09,1.09,0,0,0,.78-.27,1,1,0,0,0,.05-1.44,1.09,1.09,0,0,0-.75-.32l-9.73-.34a1.1,1.1,0,0,0-.78.27,1,1,0,0,0-.35.71A1,1,0,0,0,544.13,483.38Z" transform="translate(-48.74 -55.92)"/><path class="cls-6" d="M708.75,537.83a10.28,10.28,0,0,1-8.79-2.72,8.86,8.86,0,0,1-2.69-6.69,9.3,9.3,0,0,1,3.19-6.62l19.19-17.14a10.55,10.55,0,0,1,7.2-2.66,10.07,10.07,0,0,1,7,2.85,9,9,0,0,1-.5,13.31L714.15,535.3A10.49,10.49,0,0,1,708.75,537.83Zm17.58-27.43a1.11,1.11,0,0,0-.58.27l-19.19,17.14a1,1,0,0,0-.34.71,1,1,0,0,0,.29.73,1.14,1.14,0,0,0,1.53,0l19.19-17.14a1,1,0,0,0,.05-1.44,1.08,1.08,0,0,0-.75-.31Z" transform="translate(-48.74 -55.92)"/><path class="cls-6" d="M787.74,484.19h-.48L761,483a10.28,10.28,0,0,1-7-3.06,9,9,0,0,1-2.6-6.77c.26-5.17,5-9.18,10.51-8.94l26.25,1.16a10.28,10.28,0,0,1,7,3.06,9,9,0,0,1,2.6,6.77,9.47,9.47,0,0,1-6.6,8.38h0A10.61,10.61,0,0,1,787.74,484.19Zm-26.25-11.57a1.06,1.06,0,0,0-1.09,1,1,1,0,0,0,.28.73,1.09,1.09,0,0,0,.75.33l26.25,1.16a1.11,1.11,0,0,0,.42-.06h0a1,1,0,0,0,.72-.91,1,1,0,0,0-.28-.73,1.09,1.09,0,0,0-.75-.33l-26.25-1.16Z" transform="translate(-48.74 -55.92)"/><path class="cls-6" d="M611.14,694.52h-.48l-26.25-1.16a10.28,10.28,0,0,1-7-3.06,9,9,0,0,1-2.6-6.77c.26-5.17,5-9.18,10.51-8.94l26.25,1.16a10.28,10.28,0,0,1,7,3.06,9,9,0,0,1,2.6,6.77,9.46,9.46,0,0,1-6.6,8.38h0A10.61,10.61,0,0,1,611.14,694.52ZM584.88,683a1.06,1.06,0,0,0-1.09,1,1,1,0,0,0,.28.73,1.09,1.09,0,0,0,.75.33l26.25,1.16a1.15,1.15,0,0,0,.42-.06h0a1,1,0,0,0,.72-.91,1,1,0,0,0-.28-.74,1.09,1.09,0,0,0-.75-.33L584.93,683Z" transform="translate(-48.74 -55.92)"/><path class="cls-6" d="M512.62,686.9a10.74,10.74,0,0,1-2.26-1.26l-21.15-15.41c-4.46-3.25-5.48-9.23-2.28-13.34s9.44-4.79,13.9-1.55L522,670.76c4.46,3.25,5.48,9.23,2.28,13.34A10,10,0,0,1,512.62,686.9Zm-17.21-25.05a1.08,1.08,0,0,0-1.26.3,1,1,0,0,0,.25,1.44L515.54,679a1.09,1.09,0,0,0,1.5-.17,1,1,0,0,0-.25-1.44L495.65,662A1.17,1.17,0,0,0,495.41,661.84Z" transform="translate(-48.74 -55.92)"/><path class="cls-6" d="M740.93,759.74a10.57,10.57,0,0,1-5.24-1.38,9.4,9.4,0,0,1-4.53-5.81,8.81,8.81,0,0,1,1.2-7.1l28.8-44a10,10,0,0,1,6.22-4.23,10.58,10.58,0,0,1,7.6,1.12,9.4,9.4,0,0,1,4.53,5.81,8.81,8.81,0,0,1-1.2,7.1l-28.8,44A10.15,10.15,0,0,1,740.93,759.74Zm28.81-54.43a1.18,1.18,0,0,0-.26,0,1.07,1.07,0,0,0-.67.46l-28.8,44a.94.94,0,0,0-.13.77,1,1,0,0,0,.49.63,1.13,1.13,0,0,0,1.5-.34l28.8-44a.94.94,0,0,0,.13-.77,1,1,0,0,0-.49-.63A1.12,1.12,0,0,0,769.74,705.31Z" transform="translate(-48.74 -55.92)"/><path class="cls-6" d="M628.19,749.58a10,10,0,0,1-9.7-6.92L611.58,719c-1.46-5,1.71-10.17,7.05-11.54S629.52,709,631,714l6.91,23.7c1.46,5-1.71,10.17-7.05,11.54A10.78,10.78,0,0,1,628.19,749.58Zm-6.91-34.11a1.15,1.15,0,0,0-.29,0,1,1,0,0,0-.76,1.25l6.91,23.7a1.08,1.08,0,0,0,1.34.71,1,1,0,0,0,.76-1.25l-6.91-23.69A1.08,1.08,0,0,0,621.28,715.47Z" transform="translate(-48.74 -55.92)"/><path class="cls-6" d="M662.39,829.46a9.84,9.84,0,0,1-9.92-7.89L650.64,811c-1.62-9.33,5.42-19.66,11.94-25.67,4.07-3.68,8.18-7.63,12.39-11.68s6.16-10.33,5.81-12.33l-2.16-12.24c-1.62-9.12,4-21.87,10.06-29.22,4.56-5.41,8.56-9.85,12.25-13.6,3.4-3.4,5.67-9.75,5-13.9a8.87,8.87,0,0,1,1.84-7,10.11,10.11,0,0,1,6.58-3.72c5.48-.78,10.61,2.75,11.45,7.87,1.6,9.82-2.56,21.95-10.12,29.5-3.29,3.35-6.95,7.41-11.15,12.4s-6.45,12.5-6.07,14.6l2.16,12.26c1.55,8.82-3.18,20.8-11.25,28.49-4.28,4.13-8.5,8.18-12.75,12s-6,8.13-6.12,9.37l1.81,10.39c.89,5.11-2.83,9.95-8.3,10.78A10.85,10.85,0,0,1,662.39,829.46Zm53.47-139.53h-.16a1.08,1.08,0,0,0-.71.4,1,1,0,0,0-.2.76c1.08,6.66-2,15.63-7.28,20.86-3.51,3.57-7.36,7.86-11.76,13.07-4.88,5.9-9.39,16.45-8.28,22.7L689.63,760c1,5.42-2.82,14.37-8.23,19.53-4.24,4.09-8.41,8.09-12.55,11.83-5.35,4.94-10.31,12.84-9.36,18.34l1.83,10.55a1.06,1.06,0,0,0,1.25.84,1,1,0,0,0,.9-1.17l-1.83-10.54c-.73-4.18,3-11.3,8.73-16.56,4.18-3.78,8.34-7.77,12.59-11.87,6-5.76,9.91-15.1,8.82-21.28l-2.16-12.25c-.92-5.19,2.68-14.86,7.85-21.12,4.37-5.18,8.17-9.4,11.64-12.94,5.65-5.65,9-15.34,7.83-22.55A1.07,1.07,0,0,0,715.86,689.93Z" transform="translate(-48.74 -55.92)"/><path class="cls-6" d="M551.94,712.19c-6.53,0-11.84-5-11.84-11.07S545.41,690,551.94,690s11.84,5,11.84,11.07S558.48,712.19,551.94,712.19Zm0-13.76a2.7,2.7,0,1,0,2.88,2.69A2.79,2.79,0,0,0,551.94,698.43Z" transform="translate(-48.74 -55.92)"/><path class="cls-6" d="M735.36,684.47c-6.53,0-11.84-5-11.84-11.07s5.31-11.07,11.84-11.07,11.84,5,11.84,11.07S741.89,684.47,735.36,684.47Zm0-13.76a2.7,2.7,0,1,0,2.88,2.69A2.79,2.79,0,0,0,735.36,670.71Z" transform="translate(-48.74 -55.92)"/><path class="cls-6" d="M673.43,457.74c-6.53,0-11.84-5-11.84-11.07s5.31-11.07,11.84-11.07,11.84,5,11.84,11.07S680,457.74,673.43,457.74Zm0-13.76a2.7,2.7,0,1,0,2.88,2.69A2.79,2.79,0,0,0,673.43,444Z" transform="translate(-48.74 -55.92)"/><path class="cls-6" d="M216.91,499.59c-.55,0-1.09,0-1.64,0-6.65-.41-13.41-.54-20.1-.39H195c-5.47,0-10-4.07-10.12-9.16a9,9,0,0,1,2.77-6.71,10.32,10.32,0,0,1,7-2.92c7.32-.17,14.69,0,21.91.42,3.16.19,7-2.17,8.11-5,.73-2,1.53-4,2.34-6.08,4.24-11.11,19-18.2,32.22-15.44,7.82,1.62,15.66,3.59,23.29,5.86,5.28,1.57,8.21,6.87,6.53,11.8a9.53,9.53,0,0,1-5,5.5,10.6,10.6,0,0,1-7.67.6c-7.06-2.1-14.31-3.92-21.56-5.42-3.64-.76-8.12,1.33-9,3.51s-1.56,4-2.3,6C239.71,492.27,228.48,499.59,216.91,499.59Zm-16.26-8.88c5.07,0,10.17.16,15.21.47.34,0,.7,0,1,0,7.92,0,15.61-5,18.28-11.89q1.1-2.94,2.32-6c2.41-6.33,11.45-10.48,19.33-8.83,7.5,1.55,15,3.44,22.33,5.61A1.14,1.14,0,0,0,280,470a1,1,0,0,0,.54-.59,1,1,0,0,0-.71-1.28c-7.38-2.19-15-4.1-22.52-5.66-8.88-1.85-19.08,2.87-21.85,10.12q-1.22,3.08-2.32,6c-2.46,6.35-10,10.94-17.14,10.51-7-.43-14.05-.57-21.1-.41a1.09,1.09,0,0,0-.76.31,1,1,0,0,0-.3.73,1.08,1.08,0,0,0,1.13,1h0Q197.81,490.71,200.66,490.71Z" transform="translate(-48.74 -55.92)"/><path class="cls-6" d="M155.49,1009.91a10.55,10.55,0,0,1-5.36-1.45,9.05,9.05,0,0,1-3.14-13l5.19-7.69a10.49,10.49,0,0,1,13.86-2.93,9.05,9.05,0,0,1,3.14,13l-5.19,7.69A10.19,10.19,0,0,1,155.49,1009.91Zm5.2-18.1a1.11,1.11,0,0,0-.92.47l-5.19,7.69a1,1,0,0,0,.34,1.4,1.13,1.13,0,0,0,1.5-.32l5.19-7.69a1,1,0,0,0-.34-1.4A1.15,1.15,0,0,0,160.69,991.81Z" transform="translate(-48.74 -55.92)"/><path class="cls-6" d="M200.51,453.32a10.07,10.07,0,0,1-9.37-6,8.77,8.77,0,0,1,.19-7.19,9.73,9.73,0,0,1,5.57-5l9.07-3.27a10.61,10.61,0,0,1,7.69.17,9.64,9.64,0,0,1,5.31,5.21,8.77,8.77,0,0,1-.19,7.19,9.73,9.73,0,0,1-5.57,5l-9.07,3.27a10.63,10.63,0,0,1-1.81.48h0A10.77,10.77,0,0,1,200.51,453.32Zm9.08-13.69a1.14,1.14,0,0,0-.38.07L200.12,443a1,1,0,0,0-.6.54.94.94,0,0,0,0,.78,1.1,1.1,0,0,0,1.2.64l.2-.05L210,441.6a1,1,0,0,0,.6-.54.94.94,0,0,0,0-.78,1,1,0,0,0-.58-.56A1.14,1.14,0,0,0,209.59,439.63Z" transform="translate(-48.74 -55.92)"/><path class="cls-6" d="M293.33,1006.32h-.49l-26.25-1.16a10.28,10.28,0,0,1-7-3.06,9,9,0,0,1-2.6-6.77c.26-5.17,5-9.2,10.51-8.94l26.25,1.16a10.28,10.28,0,0,1,7,3.06,9,9,0,0,1,2.6,6.77,9.46,9.46,0,0,1-6.6,8.38h0A10.6,10.6,0,0,1,293.33,1006.32Zm-26.26-11.57a1.06,1.06,0,0,0-1.09,1,1,1,0,0,0,.28.73,1.1,1.1,0,0,0,.75.33l26.25,1.16a1.09,1.09,0,0,0,.42-.06h0a1,1,0,0,0,.72-.91,1,1,0,0,0-.28-.74,1.09,1.09,0,0,0-.75-.33l-26.25-1.16Z" transform="translate(-48.74 -55.92)"/><path class="cls-6" d="M434.88,772.47a10.64,10.64,0,0,1-3.3-.52,9.79,9.79,0,0,1-5.75-4.77,8.78,8.78,0,0,1-.45-7.18l8.6-23.21a9.57,9.57,0,0,1,5.11-5.38,10.63,10.63,0,0,1,7.68-.42,9.79,9.79,0,0,1,5.75,4.77,8.78,8.78,0,0,1,.45,7.18l-8.6,23.21A10,10,0,0,1,434.88,772.47Zm8.59-33.62a1.13,1.13,0,0,0-.47.1,1,1,0,0,0-.55.58l-8.6,23.21a.94.94,0,0,0,0,.78,1,1,0,0,0,.62.52,1.12,1.12,0,0,0,.36.06,1.09,1.09,0,0,0,1-.68l8.6-23.21a.94.94,0,0,0,0-.78,1,1,0,0,0-.62-.52A1.17,1.17,0,0,0,443.48,738.85Z" transform="translate(-48.74 -55.92)"/><path class="cls-6" d="M298.65,972.53a10.74,10.74,0,0,1-2.58-.31,9.93,9.93,0,0,1-6.11-4.35,8.8,8.8,0,0,1-1-7.13l6.7-23.75a9.44,9.44,0,0,1,4.67-5.73,10.59,10.59,0,0,1,7.62-1,9.93,9.93,0,0,1,6.11,4.35,8.8,8.8,0,0,1,1,7.13l-6.7,23.75A10,10,0,0,1,298.65,972.53Zm6.69-34.16a1.12,1.12,0,0,0-.53.14,1,1,0,0,0-.51.62l-6.7,23.75a.94.94,0,0,0,.11.77,1.06,1.06,0,0,0,.66.47,1.17,1.17,0,0,0,.28,0,1.08,1.08,0,0,0,1-.76l6.7-23.75a.94.94,0,0,0-.11-.77,1.05,1.05,0,0,0-.66-.47A1.21,1.21,0,0,0,305.34,938.36Z" transform="translate(-48.74 -55.92)"/><path class="cls-6" d="M454.32,725.68a27.81,27.81,0,0,1-10-1.82c-4.9-1.92-9.31-3.34-11.5-4a9.66,9.66,0,0,1-6.93-7.31,11,11,0,0,1,.2-4.36l0-.11c1.52-5.6,7.44-7.36,12.51-6.21l.34.09c3.08.95,7.85,2.51,13.06,4.55a8.26,8.26,0,0,0,8.1-1.89c7.84-8.84,23.3-10.68,33.72-4,3.66,2.33,7.59,5,11,7.63a9.7,9.7,0,0,1,1,.83,9,9,0,0,1,0,13.28,10.58,10.58,0,0,1-13.56.56c-3.07-2.3-6.57-4.71-9.85-6.8-2-1.29-5.81-.75-7,.59a29,29,0,0,1-21.13,8.93h0ZM434.7,711.13a1.15,1.15,0,0,0,.88.75c2.32.71,7,2.21,12.15,4.24a18.33,18.33,0,0,0,6.59,1.18h0a19.66,19.66,0,0,0,14.29-6c4.19-4.73,13.23-5.76,18.91-2.09,3.44,2.19,7.14,4.74,10.38,7.17a1.15,1.15,0,0,0,1.63.05,1,1,0,0,0,0-1.44l-.11-.09-.12-.09c-3.31-2.48-7-5.06-10.55-7.28-6.55-4.22-16.93-3-21.81,2.46a17.59,17.59,0,0,1-18.39,4.22c-5.06-2-9.72-3.49-12.19-4.26a4.2,4.2,0,0,0-1.57,0l0,0A3.74,3.74,0,0,0,434.7,711.13Z" transform="translate(-48.74 -55.92)"/><path class="cls-6" d="M257.21,950.45c-6.53,0-11.84-5-11.84-11.07s5.31-11.07,11.84-11.07,11.84,5,11.84,11.07S263.74,950.45,257.21,950.45Zm0-13.76a2.7,2.7,0,1,0,2.88,2.69A2.79,2.79,0,0,0,257.21,936.69Z" transform="translate(-48.74 -55.92)"/><path class="cls-6" d="M273.32,791.94c-6.53,0-11.84-5-11.84-11.07s5.31-11.07,11.84-11.07,11.84,5,11.84,11.07S279.85,791.94,273.32,791.94Zm0-13.76a2.7,2.7,0,1,0,2.88,2.69A2.79,2.79,0,0,0,273.32,778.17Z" transform="translate(-48.74 -55.92)"/><path class="cls-6" d="M712.52,1009.91a10.55,10.55,0,0,1-5.36-1.45,9.05,9.05,0,0,1-3.14-13l5.19-7.69a10.49,10.49,0,0,1,13.86-2.93,9.05,9.05,0,0,1,3.14,13l-5.19,7.69A10.19,10.19,0,0,1,712.52,1009.91Zm5.2-18.1a1.11,1.11,0,0,0-.92.47l-5.19,7.69a1,1,0,0,0,.34,1.4,1.13,1.13,0,0,0,1.5-.32l5.19-7.69a1,1,0,0,0-.34-1.4A1.15,1.15,0,0,0,717.72,991.81Z" transform="translate(-48.74 -55.92)"/><path class="cls-6" d="M785.11,1028.31a10.4,10.4,0,0,1-7.46-3.1l-6.52-6.75a9,9,0,0,1,.72-13.27,10.57,10.57,0,0,1,14.2.67l6.52,6.75a9,9,0,0,1-.72,13.27A10.44,10.44,0,0,1,785.11,1028.31Zm-6.52-17.16a1.13,1.13,0,0,0-.73.26,1,1,0,0,0-.08,1.43l6.52,6.75a1.14,1.14,0,0,0,1.54.07,1,1,0,0,0,.08-1.43l-6.52-6.75A1.12,1.12,0,0,0,778.58,1011.15Z" transform="translate(-48.74 -55.92)"/><path class="cls-6" d="M620.44,812.11a10.78,10.78,0,0,1-2.33-.26l-9.47-2.12c-5.39-1.21-8.73-6.29-7.44-11.32s6.72-8.15,12.11-7l9.47,2.12c5.39,1.21,8.73,6.29,7.44,11.32A9.91,9.91,0,0,1,620.44,812.11ZM611,799.58a1.07,1.07,0,0,0-1.05.78,1,1,0,0,0,.81,1.22l9.46,2.11a1.12,1.12,0,0,0,1.31-.75,1,1,0,0,0-.81-1.23l-9.46-2.11A1.14,1.14,0,0,0,611,799.58Z" transform="translate(-48.74 -55.92)"/><path class="cls-6" d="M793.63,989.58h-.48l-26.25-1.16a10.28,10.28,0,0,1-7-3.06,9,9,0,0,1-2.6-6.77c.26-5.17,5-9.2,10.51-8.94l26.25,1.16a10.28,10.28,0,0,1,7,3.06,9,9,0,0,1,2.6,6.77,9.46,9.46,0,0,1-6.6,8.38h0A10.6,10.6,0,0,1,793.63,989.58ZM767.37,978a1.06,1.06,0,0,0-1.09,1,1,1,0,0,0,.28.73,1.09,1.09,0,0,0,.75.33l26.25,1.16a1.15,1.15,0,0,0,.42-.06h0a1,1,0,0,0,.72-.91,1,1,0,0,0-.28-.73,1.09,1.09,0,0,0-.75-.33L767.42,978Z" transform="translate(-48.74 -55.92)"/><path class="cls-6" d="M355,1010.31q-.53,0-1.06-.05a10.39,10.39,0,0,1-5.4-2.14l-20.14-15.78a9,9,0,0,1-1.24-13.24,10.57,10.57,0,0,1,14.16-1.17l20.14,15.79a9,9,0,0,1,1.24,13.24A10.34,10.34,0,0,1,355,1010.31Zm-20.14-26.19a1.12,1.12,0,0,0-.84.36,1,1,0,0,0,.14,1.43l20.13,15.78a1.1,1.1,0,0,0,.58.23h0a1.13,1.13,0,0,0,1-.36,1,1,0,0,0-.14-1.43l-20.13-15.78A1.13,1.13,0,0,0,334.83,984.12Z" transform="translate(-48.74 -55.92)"/><path class="cls-6" d="M567.11,780.7a10.46,10.46,0,0,1-7.24-2.88l-18.22-17.7a9,9,0,0,1,.27-13.29,10.57,10.57,0,0,1,14.21.25l18.22,17.7a9,9,0,0,1-.27,13.29A10.39,10.39,0,0,1,567.11,780.7Zm-18.22-28.11a1.13,1.13,0,0,0-.75.28,1,1,0,0,0,0,1.44L566.32,772a1.15,1.15,0,0,0,1.54,0,1,1,0,0,0,0-1.44l-18.22-17.7A1.13,1.13,0,0,0,548.89,752.59Z" transform="translate(-48.74 -55.92)"/><path class="cls-6" d="M673.43,978.38c-6.53,0-11.84-5-11.84-11.07s5.31-11.07,11.84-11.07,11.84,5,11.84,11.07S680,978.38,673.43,978.38Zm0-13.76a2.7,2.7,0,1,0,2.88,2.69A2.79,2.79,0,0,0,673.43,964.62Z" transform="translate(-48.74 -55.92)"/><path class="cls-6" d="M496.86,757.44c-6.53,0-11.84-5-11.84-11.07s5.31-11.07,11.84-11.07,11.84,5,11.84,11.07S503.39,757.44,496.86,757.44Zm0-13.76a2.7,2.7,0,1,0,2.88,2.69A2.79,2.79,0,0,0,496.86,743.68Z" transform="translate(-48.74 -55.92)"/><path class="cls-7" d="M340.87,564.19a10.05,10.05,0,0,1-3.94-.8l-50.27-21.31a9.15,9.15,0,0,1-5-5,8.34,8.34,0,0,1,.24-6.83,9.26,9.26,0,0,1,5.34-4.67,10.11,10.11,0,0,1,7.31.23l50.27,21.31a9.15,9.15,0,0,1,5,5,8.34,8.34,0,0,1-.24,6.83A9.63,9.63,0,0,1,340.87,564.19ZM290.6,532.46a1.72,1.72,0,0,0-.56.1,1.55,1.55,0,0,0-.89.78,1.39,1.39,0,0,0,0,1.13,1.51,1.51,0,0,0,.83.83l50.27,21.31a1.66,1.66,0,0,0,2.1-.74,1.39,1.39,0,0,0,0-1.13,1.51,1.51,0,0,0-.83-.83L291.25,532.6A1.66,1.66,0,0,0,290.6,532.46Z" transform="translate(-48.74 -55.92)"/><path class="cls-7" d="M410.23,464.17a10.29,10.29,0,0,1-1.82-.16l-54.19-9.84c-5.17-.94-8.56-5.64-7.56-10.47s6-8,11.2-7.07L412,446.48c5.17.94,8.56,5.64,7.56,10.47A9.43,9.43,0,0,1,410.23,464.17ZM356,443.92a1.57,1.57,0,0,0-1.56,1.2,1.49,1.49,0,0,0,1.25,1.74l54.19,9.84a1.59,1.59,0,0,0,1.86-1.17,1.49,1.49,0,0,0-1.26-1.74l-54.19-9.84Z" transform="translate(-48.74 -55.92)"/><path class="cls-7" d="M320.24,517.21a9.78,9.78,0,0,1-7.84-3.82A8.58,8.58,0,0,1,314.77,501l8-5.2a10,10,0,0,1,7.15-1.47,9.57,9.57,0,0,1,6.16,3.69,8.58,8.58,0,0,1-2.37,12.43l-8,5.2A10,10,0,0,1,320.24,517.21Zm8-15.61a1.65,1.65,0,0,0-.91.27l-8,5.2a1.42,1.42,0,0,0-.39,2.06,1.62,1.62,0,0,0,1.31.63,1.65,1.65,0,0,0,.9-.27l8-5.2a1.42,1.42,0,0,0,.39-2.06,1.6,1.6,0,0,0-1-.61Z" transform="translate(-48.74 -55.92)"/><path class="cls-7" d="M162,491.72a10,10,0,0,1-5.09-1.38,8.61,8.61,0,0,1-3-12.32l5.19-7.69a10,10,0,0,1,13.18-2.79,8.6,8.6,0,0,1,3,12.32l-5.19,7.69A9.69,9.69,0,0,1,162,491.72Zm5.2-18.1a1.62,1.62,0,0,0-1.35.69L160.66,482a1.43,1.43,0,0,0,.49,2,1.68,1.68,0,0,0,2.19-.46l5.19-7.69a1.43,1.43,0,0,0-.49-2A1.66,1.66,0,0,0,167.19,473.61Z" transform="translate(-48.74 -55.92)"/><path class="cls-7" d="M248.57,525.28a9.41,9.41,0,0,1-9.38-7.27,8.41,8.41,0,0,1,1.49-6.69,9.56,9.56,0,0,1,6.12-3.75l9.56-1.69a10,10,0,0,1,7.15,1.39,8.86,8.86,0,0,1,4,5.72,8.41,8.41,0,0,1-1.49,6.69,9.56,9.56,0,0,1-6.12,3.75l-9.56,1.69A10.21,10.21,0,0,1,248.57,525.28Zm9.57-12.11-.3,0-9.56,1.7a1.58,1.58,0,0,0-1,.62,1.4,1.4,0,0,0-.25,1.11,1.58,1.58,0,0,0,1.85,1.18l9.56-1.7a1.58,1.58,0,0,0,1-.62,1.4,1.4,0,0,0,.25-1.11,1.48,1.48,0,0,0-.67-1A1.66,1.66,0,0,0,258.14,513.17Z" transform="translate(-48.74 -55.92)"/><path class="cls-7" d="M187.36,528.77a9.77,9.77,0,0,1-1.89,8.54,8.42,8.42,0,0,1-6.13,3.07,8.84,8.84,0,0,1-6.52-2.5l-18.66-17.71a10,10,0,0,1-3.08-6.61,9.57,9.57,0,0,1,2.16-6.84,8.42,8.42,0,0,1,6.13-3.07,8.84,8.84,0,0,1,6.52,2.5l18.66,17.71A10,10,0,0,1,187.36,528.77Zm-28.79-15.27a1.65,1.65,0,0,0,.47.82L177.71,532a1.46,1.46,0,0,0,1.08.41,1.4,1.4,0,0,0,1-.51,1.66,1.66,0,0,0-.15-2.23L161,512a1.46,1.46,0,0,0-1.08-.41,1.4,1.4,0,0,0-1,.51,1.6,1.6,0,0,0-.36,1.13A1.77,1.77,0,0,0,158.58,513.51Z" transform="translate(-48.74 -55.92)"/><path class="cls-7" d="M399.89,697.46a10.09,10.09,0,0,1-3.69-.7L372,687.27a9.19,9.19,0,0,1-5.15-4.85,8.34,8.34,0,0,1,0-6.84,9.82,9.82,0,0,1,12.5-4.78l24.24,9.5a9.19,9.19,0,0,1,5.15,4.85,8.34,8.34,0,0,1,0,6.84A9.56,9.56,0,0,1,399.89,697.46Zm-24.23-19.91a1.59,1.59,0,0,0-1.46.91,1.39,1.39,0,0,0,0,1.14,1.52,1.52,0,0,0,.85.8l24.23,9.5a1.67,1.67,0,0,0,.61.12,1.6,1.6,0,0,0,1.46-.91,1.39,1.39,0,0,0,0-1.14,1.52,1.52,0,0,0-.85-.8l-24.23-9.5A1.67,1.67,0,0,0,375.66,677.55Z" transform="translate(-48.74 -55.92)"/><path class="cls-6" d="M384.2,736.61h-.48l-26.25-1.16a10.28,10.28,0,0,1-7-3.06,9,9,0,0,1-2.6-6.77c.26-5.17,5-9.18,10.51-8.94l26.25,1.16a10.28,10.28,0,0,1,7,3.06,9,9,0,0,1,2.6,6.77,9.46,9.46,0,0,1-6.6,8.38h0A10.61,10.61,0,0,1,384.2,736.61ZM357.95,725a1.06,1.06,0,0,0-1.09,1,1,1,0,0,0,.28.73,1.1,1.1,0,0,0,.75.33l26.25,1.16a1.2,1.2,0,0,0,.42-.06h0a1,1,0,0,0,.72-.91,1,1,0,0,0-.28-.74,1.09,1.09,0,0,0-.75-.33L358,725Z" transform="translate(-48.74 -55.92)"/><path class="cls-7" d="M390.7,739.06h-.46L364,737.89a9.77,9.77,0,0,1-6.62-2.91,8.53,8.53,0,0,1-2.48-6.43c.25-4.91,4.72-8.75,10-8.5l26.25,1.16a9.77,9.77,0,0,1,6.62,2.91,8.54,8.54,0,0,1,2.48,6.43,9,9,0,0,1-6.27,8h0A10.08,10.08,0,0,1,390.7,739.06Zm-26.26-11.57a1.55,1.55,0,0,0-1.58,1.41,1.42,1.42,0,0,0,.41,1.07,1.62,1.62,0,0,0,1.1.48l26.25,1.16a1.61,1.61,0,0,0,.62-.09h0a1.5,1.5,0,0,0,1-1.32,1.43,1.43,0,0,0-.41-1.07,1.62,1.62,0,0,0-1.1-.48l-26.25-1.16Z" transform="translate(-48.74 -55.92)"/><path class="cls-7" d="M573.07,461.94a10.18,10.18,0,0,1-3.06-.47,9.33,9.33,0,0,1-5.51-4.5,8.41,8.41,0,0,1-.7-6.17h0a9.07,9.07,0,0,1,5-5.8l23.54-10.91a9.89,9.89,0,0,1,12.8,4,8.68,8.68,0,0,1-4.32,12L577.31,461A10.07,10.07,0,0,1,573.07,461.94Zm23.53-21.33a1.67,1.67,0,0,0-.7.15l-23.54,10.91a1.48,1.48,0,0,0-.83,1h0a1.38,1.38,0,0,0,.12,1,1.56,1.56,0,0,0,.91.75,1.68,1.68,0,0,0,1.21-.08l23.54-10.91a1.44,1.44,0,0,0,.72-2A1.6,1.6,0,0,0,596.61,440.61Z" transform="translate(-48.74 -55.92)"/><path class="cls-7" d="M305.15,454.33a10.18,10.18,0,0,1-2.45-.3,9.44,9.44,0,0,1-5.81-4.14,8.37,8.37,0,0,1-1-6.77l6.7-23.75a9,9,0,0,1,4.44-5.45,10.06,10.06,0,0,1,7.24-.91,9.43,9.43,0,0,1,5.81,4.14,8.37,8.37,0,0,1,1,6.77l-6.7,23.75A9.47,9.47,0,0,1,305.15,454.33Zm6.69-34.16a1.66,1.66,0,0,0-.79.2,1.5,1.5,0,0,0-.74.9L303.61,445a1.39,1.39,0,0,0,.16,1.12,1.57,1.57,0,0,0,1,.69,1.6,1.6,0,0,0,1.94-1.05l6.7-23.75a1.39,1.39,0,0,0-.16-1.12,1.56,1.56,0,0,0-1-.69A1.71,1.71,0,0,0,311.84,420.17Z" transform="translate(-48.74 -55.92)"/><path class="cls-7" d="M517.71,691.62a10.22,10.22,0,0,1-2.14-1.2L494.41,675a8.9,8.9,0,0,1-2.17-12.67c3-3.9,9-4.56,13.21-1.47l21.15,15.42c4.24,3.09,5.21,8.78,2.17,12.67A9.48,9.48,0,0,1,517.71,691.62ZM500.5,666.57a1.58,1.58,0,0,0-1.84.44,1.48,1.48,0,0,0,.36,2.1l21.15,15.41a1.62,1.62,0,0,0,2.19-.25,1.48,1.48,0,0,0-.36-2.1l-21.15-15.41A1.69,1.69,0,0,0,500.5,666.57Z" transform="translate(-48.74 -55.92)"/><path class="cls-7" d="M415.68,517.59h0a26.21,26.21,0,0,1-6-.69c-4.78-1.1-9-2.11-12.94-3.07a16.49,16.49,0,0,0-10.34,1.93,10,10,0,0,1-13.36-1.9,8.57,8.57,0,0,1,2-12.49c6.95-4.78,18.06-6.81,26.43-4.84,3.85.94,7.92,1.91,12.83,3,2.57.61,6.6-.78,7.74-2.26,2.57-3.26,5.09-6.64,7.5-10.09,5.75-8.08,16.6-13,25.83-11.8,4.61.64,8.88,1.29,13.08,2a6,6,0,0,0,5.32-3.18c1.89-4.2,3.71-8.51,5.42-12.82,4.24-10.49,15.41-17.17,25.44-15.21a213,213,0,0,1,24.55,6.33,8.81,8.81,0,0,1,5.91,11.36c-1.72,4.65-7.17,7.13-12.15,5.52a192.59,192.59,0,0,0-22-5.7,6.87,6.87,0,0,0-3.8,4c-1.79,4.52-3.71,9-5.68,13.43-4.23,9.57-15.81,15.68-26.35,13.89-4-.67-8.09-1.29-12.44-1.89-1.51-.21-5.39,1.51-7.12,4-2.58,3.69-5.29,7.34-8,10.81C432.88,513.76,424.32,517.59,415.68,517.59Zm-21.09-11.4a18.07,18.07,0,0,1,4.09.43c3.92,1,8.13,2,12.9,3.06a17.76,17.76,0,0,0,4.1.46c6.08,0,12.25-2.68,15.34-6.68,2.67-3.39,5.29-6.91,7.81-10.51,3.32-4.68,10-7.91,14.94-7.22,4.43.61,8.58,1.25,12.68,1.93,6.88,1.17,14.77-3.06,17.58-9.42,1.94-4.31,3.81-8.74,5.57-13.18,2.31-5.71,8-9.59,12.74-8.67a201.13,201.13,0,0,1,23.17,6,1.62,1.62,0,0,0,2-.92,1.46,1.46,0,0,0-1-1.89A204.65,204.65,0,0,0,503,453.49c-6.18-1.2-13.51,3.52-16.35,10.53-1.74,4.39-3.61,8.8-5.53,13.08-2.47,5.59-9.29,8.47-14.1,7.65-4.1-.69-8.29-1.33-12.8-2-6.11-.82-14,2.93-18,8.53-2.47,3.54-5.08,7-7.72,10.39-3.15,4.07-10.54,6.41-16.11,5.09-4.93-1.14-9-2.11-12.88-3.05-6-1.42-14.7.17-19.72,3.63a1.42,1.42,0,0,0-.34,2.07,1.66,1.66,0,0,0,2.22.31C384.86,507.54,390,506.19,394.58,506.19Zm106.36-42.48Z" transform="translate(-48.74 -55.92)"/><path class="cls-7" d="M297.62,739.47a10,10,0,0,1-5-1.31,8.93,8.93,0,0,1-4.3-5.53,8.38,8.38,0,0,1,1.14-6.75l28.8-44a9.48,9.48,0,0,1,5.91-4,10.06,10.06,0,0,1,7.22,1.06,8.94,8.94,0,0,1,4.3,5.53,8.38,8.38,0,0,1-1.14,6.75l-28.8,44A9.65,9.65,0,0,1,297.62,739.47ZM326.43,685a1.73,1.73,0,0,0-.37,0,1.58,1.58,0,0,0-1,.67l-28.8,44a1.39,1.39,0,0,0-.19,1.12,1.48,1.48,0,0,0,.71.92,1.67,1.67,0,0,0,2.18-.49l28.8-44a1.39,1.39,0,0,0,.19-1.12,1.48,1.48,0,0,0-.71-.92A1.65,1.65,0,0,0,326.43,685Z" transform="translate(-48.74 -55.92)"/><path class="cls-7" d="M253.64,713.41c-6.26,0-11.35-4.76-11.35-10.6s5.09-10.6,11.35-10.6S265,697,265,702.81,259.9,713.41,253.64,713.41Zm0-13.76a3.16,3.16,0,1,0,3.38,3.16A3.28,3.28,0,0,0,253.64,699.65Z" transform="translate(-48.74 -55.92)"/><path class="cls-7" d="M375.12,554.67c-6.26,0-11.35-4.76-11.35-10.6s5.09-10.61,11.35-10.61,11.35,4.76,11.35,10.61S381.37,554.67,375.12,554.67Zm0-13.76a3.16,3.16,0,1,0,3.38,3.16A3.28,3.28,0,0,0,375.12,540.91Z" transform="translate(-48.74 -55.92)"/><path class="cls-6" d="M804.09,727.86a10.11,10.11,0,0,1-9.2-5.61A9.18,9.18,0,0,1,800,709.86L850.53,689a10.35,10.35,0,0,1,13.25,4.81,9.18,9.18,0,0,1-5.14,12.39l-50.5,20.83A10.59,10.59,0,0,1,804.09,727.86Zm50.5-31.24a1.15,1.15,0,0,0-.44.09l-50.5,20.83a1,1,0,0,0-.56,1.34,1.1,1.1,0,0,0,1,.61,1.14,1.14,0,0,0,.44-.09L855,698.57a1,1,0,0,0,.56-1.34A1.1,1.1,0,0,0,854.59,696.62Z" transform="translate(-48.74 -55.92)"/><path class="cls-7" d="M810.59,730.3a9.61,9.61,0,0,1-8.75-5.33,8.72,8.72,0,0,1,4.89-11.78l50.5-20.83a9.84,9.84,0,0,1,12.6,4.57,8.72,8.72,0,0,1-4.89,11.77l-50.5,20.83A10.05,10.05,0,0,1,810.59,730.3Zm50.5-31.24a1.68,1.68,0,0,0-.64.13L809.94,720a1.45,1.45,0,0,0-.81,2,1.61,1.61,0,0,0,1.45.89,1.67,1.67,0,0,0,.64-.13l50.5-20.83a1.45,1.45,0,0,0,.81-2A1.6,1.6,0,0,0,861.08,699.06Z" transform="translate(-48.74 -55.92)"/><path class="cls-7" d="M774.06,449.56a9.9,9.9,0,0,1-7-2.88l-37.39-38a8.54,8.54,0,0,1-2.52-6.42,8.64,8.64,0,0,1,3.08-6.2,10,10,0,0,1,13.5.52l37.39,38a8.54,8.54,0,0,1,2.52,6.42,8.64,8.64,0,0,1-3.08,6.2A9.9,9.9,0,0,1,774.06,449.56Zm-37.39-48.37a1.64,1.64,0,0,0-1.07.39,1.43,1.43,0,0,0-.51,1,1.41,1.41,0,0,0,.42,1.06l37.39,38a1.66,1.66,0,0,0,2.24.09,1.43,1.43,0,0,0,.51-1,1.42,1.42,0,0,0-.42-1.06l-37.39-38a1.63,1.63,0,0,0-1.1-.48Z" transform="translate(-48.74 -55.92)"/><path class="cls-7" d="M592.06,564.2a10,10,0,0,1-6.06-2l-42.66-32.74A8.55,8.55,0,0,1,542,516.86a10,10,0,0,1,13.45-1.24l42.66,32.74a8.55,8.55,0,0,1,1.32,12.57A9.8,9.8,0,0,1,592.06,564.2ZM549.4,521a1.63,1.63,0,0,0-1.23.54,1.42,1.42,0,0,0,.22,2.09l42.66,32.74a1.67,1.67,0,0,0,2.23-.21,1.42,1.42,0,0,0-.22-2.09l-42.66-32.74A1.65,1.65,0,0,0,549.4,521Z" transform="translate(-48.74 -55.92)"/><path class="cls-6" d="M670.57,719.34c-5.39,0-9.8-3.94-10-9l-2.45-51.55c-.24-5.18,4.06-9.57,9.6-9.8a10.36,10.36,0,0,1,7.21,2.43,9.11,9.11,0,0,1,3.28,6.54l2.45,51.55c.24,5.18-4.06,9.57-9.6,9.8Zm-2.41-62h-.06a1.05,1.05,0,0,0-1.06,1.06L669.48,710a1.05,1.05,0,0,0,1.08,1h0a1.05,1.05,0,0,0,1.06-1.06l-2.45-51.54a1,1,0,0,0-.36-.72A1.07,1.07,0,0,0,668.15,657.38Z" transform="translate(-48.74 -55.92)"/><path class="cls-7" d="M677.07,721.79a9.27,9.27,0,0,1-9.54-8.53l-2.45-51.55c-.23-4.92,3.86-9.1,9.12-9.32a9.83,9.83,0,0,1,6.85,2.31,8.66,8.66,0,0,1,3.12,6.22l2.45,51.55a8.54,8.54,0,0,1-2.5,6.42,9.78,9.78,0,0,1-6.63,2.89Zm-2.41-62h-.08a1.53,1.53,0,0,0-1.53,1.55l2.45,51.54a1.54,1.54,0,0,0,1.58,1.42h.06a1.64,1.64,0,0,0,1.12-.48,1.43,1.43,0,0,0,.41-1.07l-2.45-51.54a1.45,1.45,0,0,0-.52-1A1.57,1.57,0,0,0,674.65,659.83Z" transform="translate(-48.74 -55.92)"/><path class="cls-6" d="M673.52,513.83a10.27,10.27,0,0,1-8.3-4.09c-3.75-5.12-7.84-10.18-12.17-15-1.9-2.16-7-2.88-9.65-1.37-2,1.12-3.91,2.27-5.82,3.43-10.26,6.19-24.7,5.7-34.35-1.17-5.49-4-11.26-7.73-17.18-11.22a9.38,9.38,0,0,1-4.45-5.87,8.82,8.82,0,0,1,1.3-7.09,10,10,0,0,1,6.28-4.16,10.58,10.58,0,0,1,7.58,1.21c6.46,3.8,12.75,7.91,18.7,12.21a11.24,11.24,0,0,0,11.16.32c2.05-1.26,4.17-2.5,6.27-3.7,11.3-6.52,27.3-4.09,35.65,5.4,4.69,5.24,9.16,10.77,13.28,16.4a8.85,8.85,0,0,1,1.58,7,9.31,9.31,0,0,1-4.21,6A10.51,10.51,0,0,1,673.52,513.83ZM647,484.18c5,0,10,1.84,13,5.2,4.49,5,8.76,10.29,12.67,15.64a1.14,1.14,0,0,0,1.51.26,1,1,0,0,0,.45-.65.94.94,0,0,0-.17-.76c-4-5.41-8.26-10.72-12.79-15.78-5.44-6.19-16.67-7.87-24.06-3.6-2,1.16-4.07,2.36-6.06,3.58-6.33,3.82-15.57,3.52-21.5-.7-5.75-4.15-11.81-8.11-18-11.76a1.13,1.13,0,0,0-.82-.13,1.07,1.07,0,0,0-.68.45.94.94,0,0,0-.14.77,1,1,0,0,0,.48.63C597,480.94,603,484.86,608.67,489a22.79,22.79,0,0,0,24,.79c2-1.2,4-2.4,6-3.55A16.6,16.6,0,0,1,647,484.18Z" transform="translate(-48.74 -55.92)"/><path class="cls-7" d="M680,516.28a9.76,9.76,0,0,1-7.89-3.89c-3.76-5.13-7.86-10.2-12.2-15.06-2-2.31-7.51-3.08-10.3-1.47-2,1.13-3.93,2.28-5.83,3.44-10.09,6.09-24.28,5.6-33.78-1.15-5.5-4-11.28-7.75-17.22-11.24a8.91,8.91,0,0,1-4.23-5.58,8.39,8.39,0,0,1,1.23-6.74,9.5,9.5,0,0,1,6-4,10.05,10.05,0,0,1,7.21,1.15c6.44,3.79,12.72,7.89,18.66,12.18a11.81,11.81,0,0,0,11.74.35c2.05-1.26,4.16-2.5,6.25-3.69,10.91-6.29,26.95-3.87,35,5.3,4.68,5.24,9.15,10.75,13.26,16.37a8.41,8.41,0,0,1,1.5,6.69,8.85,8.85,0,0,1-4,5.72A10,10,0,0,1,680,516.28Zm-26.55-28.74c4.81,0,9.73,1.79,12.59,5,4.48,5,8.74,10.28,12.64,15.6a1.62,1.62,0,0,0,1.31.65,1.65,1.65,0,0,0,.89-.26,1.46,1.46,0,0,0,.66-.95,1.4,1.4,0,0,0-.25-1.11c-4-5.42-8.28-10.74-12.82-15.82-5.58-6.36-17.12-8.08-24.7-3.7-2,1.16-4.07,2.36-6.08,3.58-6.16,3.72-15.15,3.43-20.93-.68s-11.83-8.12-18.06-11.79a1.67,1.67,0,0,0-1.2-.19,1.59,1.59,0,0,0-1,.66,1.39,1.39,0,0,0-.21,1.12,1.47,1.47,0,0,0,.7.93c6.15,3.62,12.14,7.53,17.82,11.63,6.89,4.9,17.24,5.25,24.59.81,1.95-1.19,4-2.39,6-3.54A16.11,16.11,0,0,1,653.47,487.54Z" transform="translate(-48.74 -55.92)"/><path class="cls-6" d="M592.43,664.68c-5.18,0-9.58-3.79-10-8.62l-.81-9.06c-.46-5.16,3.66-9.71,9.19-10.14a10.34,10.34,0,0,1,7.29,2.16,9.17,9.17,0,0,1,3.56,6.42l.8,9.06a8.94,8.94,0,0,1-2.35,6.85,10.23,10.23,0,0,1-6.84,3.29C593,664.67,592.71,664.68,592.43,664.68Zm-.77-19.48h-.09a1.05,1.05,0,0,0-1,1.1l.8,9.06a1.06,1.06,0,0,0,1.08.93h.08a1.11,1.11,0,0,0,.76-.36,1,1,0,0,0,.25-.74l-.8-9.06a1,1,0,0,0-.39-.7A1.06,1.06,0,0,0,591.66,645.2Z" transform="translate(-48.74 -55.92)"/><path class="cls-7" d="M598.93,667.13c-4.93,0-9.11-3.6-9.51-8.19l-.81-9.06a8.5,8.5,0,0,1,2.23-6.51,9.72,9.72,0,0,1,6.5-3.13,9.85,9.85,0,0,1,6.93,2.05,8.71,8.71,0,0,1,3.38,6.11l.81,9.06c.44,4.91-3.48,9.23-8.73,9.64C599.47,667.12,599.2,667.13,598.93,667.13Zm-.77-19.48H598a1.63,1.63,0,0,0-1.11.52,1.42,1.42,0,0,0-.37,1.08l.81,9.06a1.56,1.56,0,0,0,1.69,1.36,1.52,1.52,0,0,0,1.47-1.6l-.81-9.06a1.47,1.47,0,0,0-.57-1A1.59,1.59,0,0,0,598.16,647.65Z" transform="translate(-48.74 -55.92)"/><path class="cls-7" d="M505.61,547.79a10.11,10.11,0,0,1-3.46-.61l-9.07-3.3a8.77,8.77,0,0,1-5.44-11.56,9.17,9.17,0,0,1,5.06-4.94,10.1,10.1,0,0,1,7.31-.15l9.06,3.29a8.77,8.77,0,0,1,5.44,11.56A9.51,9.51,0,0,1,505.61,547.79Zm-9.06-13.71a1.7,1.7,0,0,0-.64.13,1.53,1.53,0,0,0-.84.82,1.46,1.46,0,0,0,.9,1.92l9.07,3.3a1.67,1.67,0,0,0,.57.1,1.59,1.59,0,0,0,1.48-.95,1.46,1.46,0,0,0-.9-1.92l-9.07-3.3A1.67,1.67,0,0,0,496.55,534.08Z" transform="translate(-48.74 -55.92)"/><path class="cls-7" d="M719,491.72a10,10,0,0,1-5.09-1.38,8.61,8.61,0,0,1-3-12.32l5.19-7.69a10,10,0,0,1,13.18-2.79,8.6,8.6,0,0,1,3,12.32l-5.19,7.69A9.69,9.69,0,0,1,719,491.72Zm5.2-18.1a1.62,1.62,0,0,0-1.34.69L717.68,482a1.43,1.43,0,0,0,.5,2,1.68,1.68,0,0,0,2.19-.46l5.19-7.69a1.43,1.43,0,0,0-.49-2A1.66,1.66,0,0,0,724.22,473.61Z" transform="translate(-48.74 -55.92)"/><path class="cls-7" d="M791.29,518.23a9.41,9.41,0,0,1-9.38-7.27,8.41,8.41,0,0,1,1.49-6.69,9.56,9.56,0,0,1,6.12-3.75l9.56-1.69a10,10,0,0,1,7.15,1.39,8.86,8.86,0,0,1,4,5.72,8.41,8.41,0,0,1-1.49,6.69,9.56,9.56,0,0,1-6.12,3.75l-9.56,1.69A10.21,10.21,0,0,1,791.29,518.23Zm9.57-12.11-.3,0-9.56,1.7a1.58,1.58,0,0,0-1,.62,1.4,1.4,0,0,0-.25,1.11,1.58,1.58,0,0,0,1.85,1.18l9.56-1.7a1.58,1.58,0,0,0,1-.62,1.4,1.4,0,0,0,.25-1.11,1.48,1.48,0,0,0-.67-1A1.66,1.66,0,0,0,800.86,506.12Z" transform="translate(-48.74 -55.92)"/><path class="cls-7" d="M560.61,494.57h-.37l-9.72-.34a10.2,10.2,0,0,1-1.78-.22h0a9.06,9.06,0,0,1-7.41-9,8.63,8.63,0,0,1,3-6.21,9.88,9.88,0,0,1,6.86-2.38l9.72.34a9.78,9.78,0,0,1,6.64,2.84,8.53,8.53,0,0,1-.5,12.62A9.85,9.85,0,0,1,560.61,494.57Zm-9.74-10.75a1.63,1.63,0,0,0-1.08.4,1.44,1.44,0,0,0-.51,1,1.5,1.5,0,0,0,1.22,1.5h0l.3,0,9.72.34a1.64,1.64,0,0,0,1.14-.39,1.41,1.41,0,0,0,.08-2.1,1.62,1.62,0,0,0-1.1-.47l-9.73-.34Z" transform="translate(-48.74 -55.92)"/><path class="cls-7" d="M715.55,539.25a9.77,9.77,0,0,1-8.35-2.59,8.42,8.42,0,0,1-2.56-6.36,8.84,8.84,0,0,1,3-6.29l19.19-17.14a10,10,0,0,1,6.84-2.53,9.57,9.57,0,0,1,6.64,2.71,8.42,8.42,0,0,1,2.56,6.36,8.84,8.84,0,0,1-3,6.29l-19.19,17.14A10,10,0,0,1,715.55,539.25Zm17.58-27.43a1.65,1.65,0,0,0-.85.4l-19.19,17.14a1.46,1.46,0,0,0-.5,1,1.4,1.4,0,0,0,.43,1.06,1.66,1.66,0,0,0,2.24,0l19.19-17.14a1.46,1.46,0,0,0,.5-1,1.4,1.4,0,0,0-.43-1.06,1.6,1.6,0,0,0-1.1-.45Z" transform="translate(-48.74 -55.92)"/><path class="cls-7" d="M794.25,486.63h-.46l-26.25-1.16a9.77,9.77,0,0,1-6.62-2.91,8.53,8.53,0,0,1-2.48-6.43c.25-4.91,4.73-8.72,10-8.5l26.25,1.16a9.77,9.77,0,0,1,6.62,2.91,8.54,8.54,0,0,1,2.48,6.43,9,9,0,0,1-6.27,8h0A10.08,10.08,0,0,1,794.25,486.63ZM768,475.06a1.55,1.55,0,0,0-1.58,1.41,1.42,1.42,0,0,0,.41,1.07,1.62,1.62,0,0,0,1.1.48l26.25,1.16a1.62,1.62,0,0,0,.62-.09h0a1.5,1.5,0,0,0,1-1.32,1.43,1.43,0,0,0-.41-1.07,1.62,1.62,0,0,0-1.1-.48l-26.25-1.16Z" transform="translate(-48.74 -55.92)"/><path class="cls-7" d="M617.64,697h-.46l-26.25-1.16a9.77,9.77,0,0,1-6.62-2.91,8.53,8.53,0,0,1-2.48-6.43c.25-4.91,4.73-8.74,10-8.5l26.25,1.16A9.77,9.77,0,0,1,624.7,682a8.53,8.53,0,0,1,2.48,6.43,9,9,0,0,1-6.27,8h0A10.09,10.09,0,0,1,617.64,697ZM591.38,685.4a1.55,1.55,0,0,0-1.59,1.41,1.42,1.42,0,0,0,.41,1.07,1.62,1.62,0,0,0,1.1.48l26.25,1.16a1.65,1.65,0,0,0,.62-.09,1.5,1.5,0,0,0,1-1.32,1.43,1.43,0,0,0-.41-1.07,1.62,1.62,0,0,0-1.1-.48l-26.25-1.16Z" transform="translate(-48.74 -55.92)"/><path class="cls-7" d="M517.71,691.62a10.22,10.22,0,0,1-2.14-1.2L494.41,675a8.9,8.9,0,0,1-2.17-12.67c3-3.9,9-4.56,13.21-1.47l21.15,15.42c4.24,3.09,5.21,8.78,2.17,12.67A9.48,9.48,0,0,1,517.71,691.62ZM500.5,666.57a1.58,1.58,0,0,0-1.84.44,1.48,1.48,0,0,0,.36,2.1l21.15,15.41a1.62,1.62,0,0,0,2.19-.25,1.48,1.48,0,0,0-.36-2.1l-21.15-15.41A1.69,1.69,0,0,0,500.5,666.57Z" transform="translate(-48.74 -55.92)"/><path class="cls-7" d="M747.42,762.18a10,10,0,0,1-5-1.31,8.93,8.93,0,0,1-4.3-5.53,8.38,8.38,0,0,1,1.14-6.75l28.8-44a9.48,9.48,0,0,1,5.91-4,10.06,10.06,0,0,1,7.22,1.06,8.94,8.94,0,0,1,4.3,5.53,8.38,8.38,0,0,1-1.14,6.75l-28.8,44A9.65,9.65,0,0,1,747.42,762.18Zm28.81-54.43a1.73,1.73,0,0,0-.37,0,1.58,1.58,0,0,0-1,.67l-28.8,44a1.39,1.39,0,0,0-.19,1.12,1.48,1.48,0,0,0,.71.92,1.67,1.67,0,0,0,2.18-.49l28.8-44a1.39,1.39,0,0,0,.19-1.12,1.48,1.48,0,0,0-.71-.92A1.65,1.65,0,0,0,776.24,707.75Z" transform="translate(-48.74 -55.92)"/><path class="cls-7" d="M634.69,752a9.5,9.5,0,0,1-9.22-6.58l-6.91-23.7a8.89,8.89,0,0,1,6.7-11c5.09-1.29,10.35,1.52,11.73,6.27l6.91,23.7a8.89,8.89,0,0,1-6.7,11A10.26,10.26,0,0,1,634.69,752Zm-6.91-34.11a1.69,1.69,0,0,0-.42.05,1.48,1.48,0,0,0-1.11,1.82l6.91,23.7a1.61,1.61,0,0,0,2,1,1.47,1.47,0,0,0,1.11-1.82L629.31,719A1.58,1.58,0,0,0,627.78,717.91Z" transform="translate(-48.74 -55.92)"/><path class="cls-7" d="M668.89,831.91a9.35,9.35,0,0,1-9.42-7.49l-1.84-10.55c-1.59-9.16,5.37-19.33,11.8-25.27,4.08-3.68,8.19-7.63,12.4-11.69s6.32-10.59,5.94-12.72l-2.16-12.24c-1.6-9,3.94-21.58,10-28.86,4.54-5.39,8.53-9.82,12.22-13.57,3.48-3.48,5.82-10,5.12-14.29a8.44,8.44,0,0,1,1.75-6.64,9.62,9.62,0,0,1,6.26-3.54c5.21-.73,10.09,2.62,10.88,7.48,1.58,9.68-2.53,21.66-10,29.12-3.3,3.36-7,7.43-11.18,12.43-4.26,5.15-6.56,12.79-6.17,15l2.16,12.26c1.53,8.68-3.15,20.5-11.11,28.09-4.27,4.12-8.47,8.16-12.74,12-4.42,4.08-6.23,8.49-6.27,9.72l1.82,10.45c.85,4.86-2.69,9.46-7.89,10.25A10.27,10.27,0,0,1,668.89,831.91Zm53.47-139.53-.24,0a1.59,1.59,0,0,0-1,.59,1.41,1.41,0,0,0-.29,1.1c1.06,6.53-2,15.33-7.15,20.47-3.52,3.59-7.39,7.88-11.78,13.1-4.93,6-9.55,16.49-8.38,23.07L695.63,763c.93,5.3-2.78,14.06-8.1,19.13-4.24,4.09-8.4,8.09-12.54,11.82-5.28,4.87-10.53,12.83-9.5,18.74l1.83,10.55a1.59,1.59,0,0,0,1.82,1.22,1.5,1.5,0,0,0,1.31-1.7l-1.84-10.54c-.7-4.05,3-11,8.59-16.15,4.2-3.8,8.36-7.78,12.6-11.87,6.14-5.85,10.06-15.37,9-21.68l-2.16-12.25c-.89-5,2.74-14.69,7.76-20.76,4.36-5.18,8.15-9.39,11.61-12.91,5.74-5.74,9.15-15.59,8-22.93A1.56,1.56,0,0,0,722.36,692.38Z" transform="translate(-48.74 -55.92)"/><path class="cls-7" d="M558.44,714.63c-6.26,0-11.35-4.76-11.35-10.6s5.09-10.6,11.35-10.6,11.35,4.76,11.35,10.6S564.7,714.63,558.44,714.63Zm0-13.76a3.16,3.16,0,1,0,3.38,3.16A3.28,3.28,0,0,0,558.44,700.87Z" transform="translate(-48.74 -55.92)"/><path class="cls-7" d="M741.86,686.92c-6.26,0-11.35-4.76-11.35-10.6s5.09-10.6,11.35-10.6,11.35,4.76,11.35,10.6S748.12,686.92,741.86,686.92Zm0-13.76a3.16,3.16,0,1,0,3.38,3.16A3.28,3.28,0,0,0,741.86,673.16Z" transform="translate(-48.74 -55.92)"/><path class="cls-7" d="M679.93,460.18c-6.26,0-11.35-4.76-11.35-10.6s5.09-10.6,11.35-10.6,11.35,4.76,11.35,10.6S686.19,460.18,679.93,460.18Zm0-13.76a3.16,3.16,0,1,0,3.38,3.16A3.28,3.28,0,0,0,679.93,446.42Z" transform="translate(-48.74 -55.92)"/><path class="cls-6" d="M226.75,997.37a10.41,10.41,0,0,1-7.4-3l-37.39-38a9,9,0,0,1-2.65-6.75,9.09,9.09,0,0,1,3.24-6.53,10.55,10.55,0,0,1,14.2.55l37.39,38a9,9,0,0,1,2.65,6.75,9.09,9.09,0,0,1-3.24,6.53A10.42,10.42,0,0,1,226.75,997.37ZM189.36,949a1.11,1.11,0,0,0-.73.27,1,1,0,0,0-.35.71,1,1,0,0,0,.29.73l37.39,38a1.14,1.14,0,0,0,1.54.06,1,1,0,0,0,.35-.71,1,1,0,0,0-.29-.73l-37.39-38a1.1,1.1,0,0,0-.75-.33Z" transform="translate(-48.74 -55.92)"/><path class="cls-7" d="M233.25,999.82a9.9,9.9,0,0,1-7-2.88l-37.39-38a8.54,8.54,0,0,1-2.52-6.42,8.64,8.64,0,0,1,3.08-6.2,9.91,9.91,0,0,1,6.86-2.35,9.78,9.78,0,0,1,6.64,2.88l37.39,38a8.54,8.54,0,0,1,2.52,6.42,8.64,8.64,0,0,1-3.08,6.2A9.91,9.91,0,0,1,233.25,999.82Zm-37.39-48.37a1.64,1.64,0,0,0-1.07.39,1.44,1.44,0,0,0-.51,1,1.41,1.41,0,0,0,.42,1.06l37.39,38a1.66,1.66,0,0,0,2.24.09,1.43,1.43,0,0,0,.51-1,1.42,1.42,0,0,0-.42-1.06l-37.39-38a1.63,1.63,0,0,0-1.1-.48Z" transform="translate(-48.74 -55.92)"/><path class="cls-7" d="M223.41,502q-.8,0-1.61,0c-6.67-.41-13.44-.55-20.14-.39-5.31.07-9.66-3.82-9.79-8.7a8.56,8.56,0,0,1,2.63-6.38,9.81,9.81,0,0,1,6.69-2.77c7.3-.17,14.66,0,21.86.42,3.41.2,7.44-2.25,8.61-5.26.73-2,1.53-4,2.34-6.08,4.16-10.91,18.65-17.86,31.64-15.14,7.8,1.61,15.63,3.58,23.25,5.85a9.35,9.35,0,0,1,5.59,4.41,8.35,8.35,0,0,1,.62,6.81,9.05,9.05,0,0,1-4.72,5.23,10.08,10.08,0,0,1-7.29.57c-7.07-2.1-14.34-3.93-21.6-5.43-4-.83-8.63,1.44-9.53,3.8-.81,2.05-1.56,4-2.3,6C245.81,494.85,234.77,502,223.41,502Zm-16.26-7.95c5.06,0,10.15.16,15.17.47.36,0,.72,0,1.08,0,8.12,0,16-5.13,18.74-12.19.73-2,1.5-4,2.31-6,2.34-6.13,11.11-10.13,18.75-8.53,7.48,1.55,15,3.43,22.29,5.6a1.69,1.69,0,0,0,1.21-.09,1.52,1.52,0,0,0,.78-.87,1.39,1.39,0,0,0-.1-1.13,1.55,1.55,0,0,0-.93-.73c-7.39-2.2-15-4.11-22.56-5.67-9.11-1.9-19.58,3-22.42,10.42q-1.22,3.08-2.32,6c-2.39,6.16-9.69,10.63-16.64,10.2s-14.08-.57-21.15-.41a1.62,1.62,0,0,0-1.11.46,1.43,1.43,0,0,0-.44,1.06,1.59,1.59,0,0,0,1.65,1.44Q204.32,494.09,207.16,494.09Z" transform="translate(-48.74 -55.92)"/><path class="cls-7" d="M162,1012.36a10,10,0,0,1-5.09-1.38,8.6,8.6,0,0,1-3-12.32l5.19-7.69a10,10,0,0,1,13.18-2.79,8.61,8.61,0,0,1,3,12.32l-5.19,7.69A9.69,9.69,0,0,1,162,1012.36Zm5.2-18.1a1.62,1.62,0,0,0-1.35.69l-5.19,7.69a1.43,1.43,0,0,0,.49,2,1.68,1.68,0,0,0,2.19-.46l5.19-7.69a1.43,1.43,0,0,0-.49-2A1.65,1.65,0,0,0,167.19,994.25Z" transform="translate(-48.74 -55.92)"/><path class="cls-7" d="M207,455.77A9.57,9.57,0,0,1,198.1,450a8.34,8.34,0,0,1,.18-6.83,9.25,9.25,0,0,1,5.3-4.71l9.07-3.27a10.07,10.07,0,0,1,7.3.16,9.16,9.16,0,0,1,5,5,8.34,8.34,0,0,1-.18,6.83,9.25,9.25,0,0,1-5.3,4.71l-9.08,3.27a10.06,10.06,0,0,1-1.72.46h0A10.18,10.18,0,0,1,207,455.77Zm9.08-13.69a1.64,1.64,0,0,0-.56.1l-9.08,3.27a1.53,1.53,0,0,0-.88.78,1.38,1.38,0,0,0,0,1.13,1.6,1.6,0,0,0,1.76.93l.29-.08,9.08-3.27a1.53,1.53,0,0,0,.88-.78,1.39,1.39,0,0,0,0-1.13,1.54,1.54,0,0,0-.84-.82A1.71,1.71,0,0,0,216.08,442.08Z" transform="translate(-48.74 -55.92)"/><path class="cls-7" d="M299.82,1008.77h-.46l-26.25-1.16a9.77,9.77,0,0,1-6.62-2.91,8.53,8.53,0,0,1-2.48-6.43c.25-4.91,4.72-8.71,10-8.5l26.25,1.16a9.77,9.77,0,0,1,6.62,2.91,8.53,8.53,0,0,1,2.48,6.43,9,9,0,0,1-6.27,8h0A10.1,10.1,0,0,1,299.82,1008.77Zm-26.26-11.57A1.54,1.54,0,0,0,272,998.6a1.42,1.42,0,0,0,.41,1.07,1.62,1.62,0,0,0,1.1.48l26.25,1.16a1.74,1.74,0,0,0,.62-.09,1.5,1.5,0,0,0,1-1.32,1.42,1.42,0,0,0-.41-1.07,1.62,1.62,0,0,0-1.1-.48l-26.25-1.16Z" transform="translate(-48.74 -55.92)"/><path class="cls-7" d="M441.38,774.92a10.11,10.11,0,0,1-3.13-.5,9.3,9.3,0,0,1-5.46-4.54,8.34,8.34,0,0,1-.43-6.82l8.6-23.21a9.1,9.1,0,0,1,4.85-5.11,10.09,10.09,0,0,1,7.3-.4,9.31,9.31,0,0,1,5.46,4.54,8.34,8.34,0,0,1,.43,6.82l-8.6,23.21A9.54,9.54,0,0,1,441.38,774.92Zm8.6-33.62a1.69,1.69,0,0,0-.69.15,1.52,1.52,0,0,0-.81.85l-8.6,23.21a1.39,1.39,0,0,0,.07,1.13,1.54,1.54,0,0,0,.91.75,1.68,1.68,0,0,0,.52.08,1.59,1.59,0,0,0,1.5-1l8.6-23.21a1.39,1.39,0,0,0-.07-1.13,1.54,1.54,0,0,0-.91-.75A1.69,1.69,0,0,0,450,741.29Z" transform="translate(-48.74 -55.92)"/><path class="cls-7" d="M305.15,975a10.16,10.16,0,0,1-2.45-.3,9.44,9.44,0,0,1-5.81-4.14,8.37,8.37,0,0,1-1-6.77l6.7-23.75a9,9,0,0,1,4.44-5.45,10.06,10.06,0,0,1,7.25-.91,9.43,9.43,0,0,1,5.81,4.14,8.37,8.37,0,0,1,1,6.77l-6.7,23.75A9.47,9.47,0,0,1,305.15,975Zm6.69-34.16a1.67,1.67,0,0,0-.79.2,1.5,1.5,0,0,0-.74.9l-6.7,23.75a1.39,1.39,0,0,0,.16,1.12,1.57,1.57,0,0,0,1,.69,1.61,1.61,0,0,0,1.94-1.05l6.7-23.75a1.39,1.39,0,0,0-.16-1.12,1.56,1.56,0,0,0-1-.69A1.72,1.72,0,0,0,311.84,940.81Z" transform="translate(-48.74 -55.92)"/><path class="cls-7" d="M460.82,728.13a27.27,27.27,0,0,1-9.84-1.79c-4.91-1.93-9.34-3.35-11.54-4a9.19,9.19,0,0,1-6.59-6.95,10.52,10.52,0,0,1,.2-4.17l0-.1c1.6-5.92,8-6.75,11.91-5.87l.31.08c3.08.94,7.83,2.5,13,4.54a8.7,8.7,0,0,0,8.67-2c7.55-8.52,23-10.35,33.06-3.88,3.65,2.32,7.57,5,11,7.61a9.37,9.37,0,0,1,1,.8A8.52,8.52,0,0,1,512,725a10.06,10.06,0,0,1-12.9.53c-3.09-2.31-6.6-4.74-9.88-6.82-2.11-1.36-6.18-1-7.67.68a28.53,28.53,0,0,1-20.74,8.76h0Zm-20.12-14a1.62,1.62,0,0,0,1.22,1.13c2.31.71,7,2.2,12.11,4.22a18.85,18.85,0,0,0,6.78,1.22h0a20.18,20.18,0,0,0,14.66-6.12c4-4.57,12.77-5.55,18.25-2,3.42,2.18,7.11,4.72,10.36,7.15a1.65,1.65,0,0,0,2.29,0,1.41,1.41,0,0,0,0-2.09l-.16-.13-.13-.1c-3.31-2.47-7.05-5.06-10.56-7.29-6.74-4.35-17.44-3.13-22.47,2.54a17,17,0,0,1-17.81,4.08c-5.08-2-9.77-3.51-12.24-4.27-.4-.06-2-.27-2.21.44A4.15,4.15,0,0,0,440.7,714.11Zm0,0v0l0,.07Zm0-.08h0Z" transform="translate(-48.74 -55.92)"/><path class="cls-6" d="M150.25,725.38h0a26.72,26.72,0,0,1-3.64-5c-2.42-4.29-4.54-8.1-6.47-11.62a15.82,15.82,0,0,0-8.06-6.07,10.54,10.54,0,0,1-8-11.72,9,9,0,0,1,11.14-7.29c8.34,1.93,17.49,8.86,21.75,16.49,1.92,3.5,4,7.15,6.41,11.52,1.18,2.12,4.72,4.06,6.41,3.92,4.14-.3,8.32-.73,12.49-1.28,10-1.24,21.2,3.52,26.63,11.31,2.66,3.86,5.06,7.45,7.37,11a5.63,5.63,0,0,0,5.36,1.56c4.37-1.44,8.78-3,13.11-4.65,10.82-4,23.55-.19,29,8.73a213.78,213.78,0,0,1,11.93,22.44c2.29,5,.21,10.69-4.62,12.65s-10.62-.5-12.91-5.51a192.17,192.17,0,0,0-10.58-19.95,6.65,6.65,0,0,0-5,0c-4.55,1.73-9.19,3.37-13.76,4.88-10.12,3.41-22.69-1.11-28.61-10.28-2.2-3.4-4.49-6.81-7-10.44-.7-1-4.31-2.72-7.25-2.36-4.47.59-9,1.05-13.42,1.37C165,735.66,156.19,731.87,150.25,725.38Zm-5.13-23.87a18.53,18.53,0,0,1,2.5,3.39c1.93,3.52,4,7.3,6.45,11.58a17.24,17.24,0,0,0,2.36,3.24c3.94,4.31,10.06,7,14.87,6.65,4.29-.31,8.65-.76,13-1.33,5.12-.63,12.63,1.62,15.9,6.37,2.55,3.7,4.89,7.2,7.14,10.68a16.58,16.58,0,0,0,18.24,6.4c4.48-1.48,9-3.08,13.47-4.78,6-2.23,13-.53,15.59,3.77a201.51,201.51,0,0,1,11.26,21.19,1.11,1.11,0,0,0,1.4.6,1,1,0,0,0,.5-1.37,204.34,204.34,0,0,0-11.4-21.44c-3.16-5.17-11.33-7.3-18.21-4.73-4.42,1.68-8.93,3.28-13.4,4.75-6,2-13-1.19-15.73-5.46-2.25-3.47-4.6-7-7.19-10.75-3.42-4.92-11.33-8.14-18-7.32-4.29.57-8.64,1-12.9,1.32-5.3.44-12.24-3.56-15.11-8.72-2.47-4.38-4.52-8.06-6.44-11.56-3-5.28-9.83-10.5-15.65-11.84a1,1,0,0,0-.78.13,1,1,0,0,0-.42.66,1.14,1.14,0,0,0,.87,1.27C137.38,695.09,142,698.07,145.12,701.51ZM247.61,752Z" transform="translate(-48.74 -55.92)"/><path class="cls-7" d="M152.83,731.82h0a26.21,26.21,0,0,1-3.57-4.92c-2.42-4.29-4.54-8.1-6.47-11.62a16.48,16.48,0,0,0-8.4-6.33,10,10,0,0,1-7.62-11.14,8.57,8.57,0,0,1,10.58-6.93c8.21,1.9,17.22,8.73,21.41,16.23,1.91,3.49,3.94,7.14,6.41,11.52,1.28,2.31,5,4.34,6.89,4.19,4.14-.3,8.34-.73,12.51-1.28,9.84-1.21,20.82,3.46,26.14,11.09,2.65,3.85,5.05,7.44,7.36,11a6,6,0,0,0,5.94,1.78c4.38-1.44,8.79-3,13.12-4.65,10.61-4,23.07-.21,28.39,8.51a213.22,213.22,0,0,1,11.9,22.38,8.81,8.81,0,0,1-4.4,12c-4.59,1.87-10.1-.48-12.27-5.24a192.45,192.45,0,0,0-10.68-20.11,6.87,6.87,0,0,0-5.49-.14c-4.54,1.72-9.17,3.37-13.74,4.87-9.92,3.34-22.24-1.08-28-10.07-2.2-3.4-4.49-6.82-7-10.46-.86-1.25-4.75-3-7.72-2.58-4.47.59-9,1.05-13.4,1.37C167.27,741.93,158.67,738.2,152.83,731.82ZM147,708.56a18,18,0,0,1,2.44,3.31c1.93,3.53,4,7.3,6.45,11.58a17.76,17.76,0,0,0,2.43,3.34c4.11,4.49,10.25,7.23,15.28,6.82,4.3-.31,8.67-.76,13-1.33,5.69-.7,12.59,2.05,15.42,6.15,2.55,3.7,4.88,7.19,7.14,10.66C213,755,221.41,757.92,228,755.7c4.49-1.48,9-3.09,13.48-4.78,5.77-2.15,12.49-.55,15,3.55a201.18,201.18,0,0,1,11.23,21.13,1.62,1.62,0,0,0,2,.87,1.46,1.46,0,0,0,.73-2A204.62,204.62,0,0,0,259.06,753c-3.28-5.37-11.72-7.6-18.8-5-4.41,1.68-8.92,3.28-13.38,4.75-5.79,1.95-12.52-1.13-15.16-5.24-2.25-3.47-4.61-7-7.2-10.77-3.52-5.06-11.64-8.39-18.46-7.54-4.28.57-8.63,1-12.88,1.32-5.12.42-11.84-3.45-14.63-8.45-2.48-4.39-4.53-8.07-6.44-11.56-3-5.4-10-10.73-16-12.1a1.42,1.42,0,0,0-1.76,1.15,1.66,1.66,0,0,0,1.27,1.85C139.45,702.3,143.94,705.21,147,708.56Zm103.14,49.8Z" transform="translate(-48.74 -55.92)"/><path class="cls-7" d="M263.71,952.9c-6.26,0-11.35-4.76-11.35-10.6s5.09-10.6,11.35-10.6,11.35,4.76,11.35,10.6S270,952.9,263.71,952.9Zm0-13.76a3.16,3.16,0,1,0,3.38,3.16A3.28,3.28,0,0,0,263.71,939.13Z" transform="translate(-48.74 -55.92)"/><path class="cls-6" d="M167.74,773.37c-6.53,0-11.84-5-11.84-11.07s5.31-11.07,11.84-11.07,11.84,5,11.84,11.07S174.27,773.37,167.74,773.37Zm0-13.76a2.7,2.7,0,1,0,2.88,2.69A2.79,2.79,0,0,0,167.74,759.6Z" transform="translate(-48.74 -55.92)"/><path class="cls-7" d="M174.24,775.81c-6.26,0-11.35-4.76-11.35-10.6s5.09-10.6,11.35-10.6,11.35,4.76,11.35,10.6S180.49,775.81,174.24,775.81Zm0-13.76a3.16,3.16,0,1,0,3.38,3.16A3.28,3.28,0,0,0,174.24,762.05Z" transform="translate(-48.74 -55.92)"/><path class="cls-7" d="M279.82,794.38c-6.26,0-11.35-4.76-11.35-10.6s5.09-10.6,11.35-10.6,11.35,4.76,11.35,10.6S286.07,794.38,279.82,794.38Zm0-13.76a3.16,3.16,0,1,0,3.38,3.16A3.28,3.28,0,0,0,279.82,780.62Z" transform="translate(-48.74 -55.92)"/><path class="cls-7" d="M719,1012.36a10,10,0,0,1-5.09-1.38,8.6,8.6,0,0,1-3-12.32l5.19-7.69a10,10,0,0,1,13.18-2.79,8.61,8.61,0,0,1,3,12.32l-5.19,7.69A9.69,9.69,0,0,1,719,1012.36Zm5.2-18.1a1.62,1.62,0,0,0-1.35.69l-5.19,7.69a1.43,1.43,0,0,0,.49,2,1.68,1.68,0,0,0,2.19-.46l5.19-7.69a1.43,1.43,0,0,0-.5-2A1.65,1.65,0,0,0,724.22,994.25Z" transform="translate(-48.74 -55.92)"/><path class="cls-7" d="M791.6,1030.76a9.88,9.88,0,0,1-7.09-2.95l-6.52-6.75a8.54,8.54,0,0,1,.69-12.61,10,10,0,0,1,13.49.64l6.52,6.75a8.53,8.53,0,0,1,2.45,6.44,8.66,8.66,0,0,1-3.14,6.17A9.92,9.92,0,0,1,791.6,1030.76Zm-6.52-17.16a1.65,1.65,0,0,0-1.06.38,1.42,1.42,0,0,0-.11,2.09l6.52,6.75a1.66,1.66,0,0,0,2.24.11,1.43,1.43,0,0,0,.52-1,1.41,1.41,0,0,0-.41-1.07l-6.52-6.75A1.64,1.64,0,0,0,785.08,1013.6Z" transform="translate(-48.74 -55.92)"/><path class="cls-7" d="M626.94,814.55a10.24,10.24,0,0,1-2.22-.25l-9.46-2.11c-5.12-1.15-8.3-6-7.07-10.76s6.39-7.74,11.51-6.61l9.47,2.12c5.12,1.15,8.29,6,7.07,10.76A9.42,9.42,0,0,1,626.94,814.55ZM617.47,802a1.56,1.56,0,0,0-1.54,1.14,1.48,1.48,0,0,0,1.18,1.79l9.46,2.11a1.6,1.6,0,0,0,1.91-1.1,1.48,1.48,0,0,0-1.18-1.79l-9.46-2.11A1.74,1.74,0,0,0,617.47,802Z" transform="translate(-48.74 -55.92)"/><path class="cls-7" d="M800.13,992h-.46l-26.25-1.16a9.77,9.77,0,0,1-6.62-2.91,8.53,8.53,0,0,1-2.48-6.43c.25-4.91,4.73-8.72,10-8.5l26.25,1.16a9.77,9.77,0,0,1,6.62,2.91,8.53,8.53,0,0,1,2.48,6.43,9,9,0,0,1-6.27,8h0A10.1,10.1,0,0,1,800.13,992Zm-26.26-11.57a1.54,1.54,0,0,0-1.58,1.41,1.42,1.42,0,0,0,.41,1.07,1.62,1.62,0,0,0,1.1.48L800,984.57a1.74,1.74,0,0,0,.62-.09,1.5,1.5,0,0,0,1-1.32,1.42,1.42,0,0,0-.41-1.07,1.62,1.62,0,0,0-1.1-.48l-26.25-1.16Z" transform="translate(-48.74 -55.92)"/><path class="cls-7" d="M361.46,1012.76q-.5,0-1,0h0a9.89,9.89,0,0,1-5.13-2l-20.14-15.78A8.55,8.55,0,0,1,334,982.31a10,10,0,0,1,13.46-1.11L367.6,997a8.55,8.55,0,0,1,1.18,12.58A9.83,9.83,0,0,1,361.46,1012.76Zm-.17-7.46a1.66,1.66,0,0,0,1.39-.52,1.42,1.42,0,0,0-.2-2.09l-20.13-15.78a1.67,1.67,0,0,0-2.24.18,1.42,1.42,0,0,0,.2,2.09L360.44,1005a1.61,1.61,0,0,0,.85.34Z" transform="translate(-48.74 -55.92)"/><path class="cls-7" d="M573.61,783.15a9.81,9.81,0,0,1-6.88-2.74l-18.22-17.7a8.53,8.53,0,0,1,.26-12.63,10.05,10.05,0,0,1,13.51.24L580.49,768a8.53,8.53,0,0,1-.26,12.63A9.86,9.86,0,0,1,573.61,783.15ZM555.39,755a1.64,1.64,0,0,0-1.1.41,1.42,1.42,0,0,0,0,2.1l18.22,17.7a1.67,1.67,0,0,0,2.24,0,1.42,1.42,0,0,0,0-2.1l-18.22-17.7A1.64,1.64,0,0,0,555.39,755Z" transform="translate(-48.74 -55.92)"/><path class="cls-7" d="M679.93,980.82c-6.26,0-11.35-4.76-11.35-10.6s5.09-10.6,11.35-10.6,11.35,4.76,11.35,10.6S686.19,980.82,679.93,980.82Zm0-13.76a3.16,3.16,0,1,0,3.38,3.16A3.28,3.28,0,0,0,679.93,967.06Z" transform="translate(-48.74 -55.92)"/><path class="cls-7" d="M503.35,759.89c-6.26,0-11.35-4.76-11.35-10.6s5.09-10.6,11.35-10.6,11.35,4.76,11.35,10.6S509.61,759.89,503.35,759.89Zm0-13.76a3.16,3.16,0,1,0,3.38,3.16A3.28,3.28,0,0,0,503.35,746.13Z" transform="translate(-48.74 -55.92)"/><path class="cls-6" d="M714.37,961.55a10.27,10.27,0,0,1-8.3-4.09c-3.75-5.12-7.84-10.18-12.17-15-1.9-2.16-7-2.88-9.65-1.37-2,1.12-3.91,2.27-5.82,3.43-10.26,6.19-24.7,5.7-34.35-1.17-5.49-4-11.26-7.73-17.18-11.22a9.38,9.38,0,0,1-4.45-5.87,8.82,8.82,0,0,1,1.3-7.09A10,10,0,0,1,630,915a10.58,10.58,0,0,1,7.58,1.21c6.46,3.8,12.75,7.91,18.7,12.21a11.24,11.24,0,0,0,11.16.32c2.05-1.26,4.17-2.5,6.27-3.7,11.3-6.52,27.3-4.09,35.65,5.4,4.69,5.24,9.16,10.77,13.28,16.4a8.85,8.85,0,0,1,1.58,7,9.31,9.31,0,0,1-4.21,6A10.51,10.51,0,0,1,714.37,961.55Zm-26.56-29.66c5,0,10,1.84,13,5.2,4.49,5,8.76,10.29,12.67,15.64A1.14,1.14,0,0,0,715,953a1,1,0,0,0,.45-.65.94.94,0,0,0-.17-.76c-4-5.41-8.26-10.72-12.79-15.78-5.44-6.19-16.67-7.87-24.06-3.6-2,1.16-4.07,2.36-6.06,3.58-6.33,3.82-15.57,3.52-21.5-.7-5.75-4.15-11.81-8.11-18-11.76a1.13,1.13,0,0,0-.82-.13,1.07,1.07,0,0,0-.68.45.94.94,0,0,0-.14.77,1,1,0,0,0,.48.63c6.17,3.63,12.17,7.55,17.86,11.66a22.79,22.79,0,0,0,24,.79c2-1.2,4-2.4,6-3.55A16.6,16.6,0,0,1,687.81,931.89Z" transform="translate(-48.74 -55.92)"/><path class="cls-7" d="M720.87,964a9.76,9.76,0,0,1-7.89-3.89c-3.76-5.13-7.86-10.2-12.2-15.06-2-2.31-7.51-3.08-10.3-1.47-2,1.13-3.93,2.28-5.83,3.44-10.09,6.09-24.28,5.6-33.78-1.15-5.5-4-11.28-7.75-17.22-11.24a8.91,8.91,0,0,1-4.23-5.58,8.39,8.39,0,0,1,1.23-6.74,9.5,9.5,0,0,1,6-4,10.05,10.05,0,0,1,7.21,1.15c6.44,3.79,12.72,7.89,18.66,12.18a11.81,11.81,0,0,0,11.74.35c2.05-1.26,4.16-2.5,6.25-3.69,10.91-6.29,26.95-3.87,35,5.3,4.68,5.24,9.15,10.75,13.26,16.37a8.41,8.41,0,0,1,1.5,6.69,8.85,8.85,0,0,1-4,5.72A10,10,0,0,1,720.87,964Zm-26.55-28.74c4.81,0,9.73,1.79,12.59,5,4.48,5,8.74,10.28,12.64,15.6a1.62,1.62,0,0,0,1.31.65,1.65,1.65,0,0,0,.89-.26,1.46,1.46,0,0,0,.66-.95,1.4,1.4,0,0,0-.25-1.11c-4-5.42-8.28-10.74-12.82-15.82-5.58-6.36-17.12-8.08-24.7-3.7-2,1.16-4.07,2.36-6.08,3.58-6.16,3.72-15.15,3.43-20.93-.68s-11.83-8.12-18.06-11.79a1.67,1.67,0,0,0-1.2-.19,1.59,1.59,0,0,0-1,.66,1.39,1.39,0,0,0-.21,1.12,1.47,1.47,0,0,0,.7.93c6.15,3.62,12.14,7.53,17.82,11.63,6.89,4.9,17.24,5.25,24.59.81,1.95-1.19,4-2.39,6-3.54A16.11,16.11,0,0,1,694.33,935.26Z" transform="translate(-48.74 -55.92)"/><path class="cls-6" d="M789.69,764.89c-6.53,0-11.84-5-11.84-11.07s5.31-11.07,11.84-11.07,11.84,5,11.84,11.07S796.22,764.89,789.69,764.89Zm0-13.76a2.7,2.7,0,1,0,2.88,2.69A2.79,2.79,0,0,0,789.69,751.12Z" transform="translate(-48.74 -55.92)"/><path class="cls-7" d="M796.19,767.33c-6.26,0-11.35-4.76-11.35-10.6s5.09-10.6,11.35-10.6,11.35,4.76,11.35,10.6S802.45,767.33,796.19,767.33Zm0-13.76a3.16,3.16,0,1,0,3.38,3.16A3.28,3.28,0,0,0,796.19,753.57Z" transform="translate(-48.74 -55.92)"/><path class="cls-6" d="M637.8,1011.72a10.41,10.41,0,0,1-7.4-3l-37.39-38a9,9,0,0,1-2.65-6.75,9.09,9.09,0,0,1,3.24-6.53,10.4,10.4,0,0,1,7.22-2.48,10.29,10.29,0,0,1,7,3l37.39,38a9,9,0,0,1,2.65,6.75,9.09,9.09,0,0,1-3.24,6.53A10.41,10.41,0,0,1,637.8,1011.72Zm-37.39-48.37a1.1,1.1,0,0,0-.73.27,1,1,0,0,0-.35.71,1,1,0,0,0,.29.73L637,1003a1.14,1.14,0,0,0,1.53.06,1,1,0,0,0,.35-.71,1,1,0,0,0-.29-.73l-37.39-38a1.1,1.1,0,0,0-.75-.33Z" transform="translate(-48.74 -55.92)"/><path class="cls-7" d="M644.3,1014.16a9.9,9.9,0,0,1-7-2.88l-37.39-38a8.54,8.54,0,0,1-2.52-6.42,8.64,8.64,0,0,1,3.08-6.2,10,10,0,0,1,13.5.52l37.39,38a8.54,8.54,0,0,1,2.52,6.42,8.64,8.64,0,0,1-3.08,6.2A9.9,9.9,0,0,1,644.3,1014.16Zm-37.39-48.37a1.64,1.64,0,0,0-1.07.39,1.43,1.43,0,0,0-.51,1,1.41,1.41,0,0,0,.42,1.06l37.39,38a1.66,1.66,0,0,0,2.24.09,1.43,1.43,0,0,0,.51-1,1.42,1.42,0,0,0-.42-1.06l-37.39-38a1.63,1.63,0,0,0-1.1-.48Z" transform="translate(-48.74 -55.92)"/></g></g><path d="M803.5,411H158a49.66,49.66,0,0,0-49.66,49.66V996.91A49.66,49.66,0,0,0,158,1046.56H803.5a49.66,49.66,0,0,0,49.66-49.66V460.63A49.66,49.66,0,0,0,803.5,411Zm14.9,576a29.88,29.88,0,0,1-29.79,29.79H172.88A29.88,29.88,0,0,1,143.09,987V470.56a29.88,29.88,0,0,1,29.79-29.79H788.6a29.88,29.88,0,0,1,29.79,29.79Z" transform="translate(-48.74 -55.92)"/><polygon class="cls-8" points="70.07 490.58 202 457.48 193.05 504.19 422.62 440.93 419.26 486.54 609.32 440.93 607.83 484.33 775.16 448.28 772.17 500.14 804.97 493.52 804.97 621.16 690.19 646.17 694.29 603.5 494.17 643.23 500.5 599.09 299.63 652.05 302.24 601.66 88.33 659.41 94.67 613.8 70.07 620.42 70.07 490.58"/><polygon class="cls-8" points="70.07 757.62 202 724.52 193.05 771.23 422.62 707.96 419.26 753.57 609.32 707.96 607.83 751.37 775.16 715.32 772.17 767.18 804.97 760.56 804.97 888.19 690.19 913.21 694.29 870.54 494.17 910.26 500.5 866.13 299.63 919.09 302.24 868.7 88.33 926.45 94.67 880.84 70.07 887.46 70.07 757.62"/><g id="Lips"><path d="M323.32,892.62c61.79,28,183.91,40.46,269.61,10.3S794.78,786.81,785.85,783.56c-8.09-2.94-50.94,7.91-90.67,16.74S626,815.38,607.27,815.38s-44.51,0-62.9,1.1-37.14,12.54-38.54,13.2c-16.27,7.76-44.59,9.24-72.54-5.84-25.26-13.63-48.18-9.56-48.18-9.56s-24.64,7-58.48,4.41-76.51-15.45-119.17-27.59-37.89-5.89-37.89-5.89S261.52,864.67,323.32,892.62Z" transform="translate(-48.74 -55.92)"/></g><g id="Teeth"><path class="cls-4" d="M607.73,815.38c-18.76,0-44.51,0-62.9,1.1S507.69,829,506.3,829.68c-16.27,7.76-44.59,9.24-72.54-5.84-25.26-13.63-48.18-9.56-48.18-9.56s-24.64,7-58.48,4.41c-19.64-1.49-42.26-6.47-66.12-12.74,3.61,8.46,13.19,30.32,17.07,33.75,4.83,4.28,27.59,18.76,35.45,18.62s8.83-5.79,8.83-5.79,2.62,10.76,16.83,17.1,20,8,32.14,8.49,15.86.06,17.79-8.21,2.48-4.23,2.48-4.23l3.17,11.4c.69,2.48.28,4.69,8.28,9.24s14.21,4.14,14.21,4.14l48.41-.55a10.59,10.59,0,0,0,7.31-5.93,69.21,69.21,0,0,0,3-8.92l2.21,10.3s5.52,5.38,13,6.62,53-2.48,53-2.48,11.78.66,17.24-21c0,0,.83,5,2.07,7.3a8.38,8.38,0,0,0,3,3.31l26.07-.41s18.48-7.17,25.93-13.66a33,33,0,0,0,9.66-14.21s1.38,7.17,3.72,7.86A19.34,19.34,0,0,0,646,857.36c6.48-3.17,12.69-3.86,35.45-31.59A5.17,5.17,0,0,0,683,823c.81-3.21,0-13,0-13v-7C649.63,810.41,624.44,815.38,607.73,815.38Z" transform="translate(-48.74 -55.92)"/></g><g id="Lips-2" data-name="Lips"><path class="cls-9" d="M162,786.5s-6.34-7.26,5.7-7.36S195,780.44,195,780.44a111.45,111.45,0,0,0,31.08-1.29c17.1-3.12,66.39-12.69,104.28-28.13S436,756.34,436,756.34s41.93,15.08,102.07-4.23,137.75,7.36,137.75,7.36S721.75,779,788,776c0,0,10.67-2.21,0,14.9S742.9,861.72,637.7,957,371,1003.7,310.35,949.26,162,786.5,162,786.5Zm162.3,106.11c61.79,28,183.91,40.46,269.61,10.3S795.78,786.81,786.85,783.56c-8.09-2.94-50.94,7.91-90.67,16.74S627,815.38,608.28,815.38s-44.51,0-62.9,1.1-37.14,12.54-38.54,13.2c-16.27,7.76-44.59,9.24-72.54-5.84-25.26-13.63-48.18-9.56-48.18-9.56s-24.64,7-58.48,4.41-76.51-15.45-119.17-27.59-37.89-5.89-37.89-5.89S262.53,864.67,324.32,892.62Z" transform="translate(-48.74 -55.92)"/></g><path class="cls-10" d="M380.7,906.32s1.77-5.52,10.08-5.89S414,902.18,414,902.18s42.3,5.24,50.38,7,21.88,3.31,41.24,0S543.7,899.42,554,898.6,579.5,896.8,588.11,912s8.35,25.93,7,39.45-10.28,41.1.7,65.66a48.35,48.35,0,0,1,4.87,19.72c.13,10.76-.8,22.62,0,34.9s4.11,13.79,2.92,42.48-2,25.79-5,41.24-2.39,7.31-4.77,18.62-7,13.1-10.21,9.1-17.1-18.76-16.84-34.48,1.06-17.24.27-20.14-2.65-9.24-5-7.31-2.65,6.34-2.65,14.07.53,14.21-3.71,22.21-8.75,6.34-11.67,2.21-6.89-10.07-7.42-16.14-.27-16.41-4.11-14.34-10.47,7.72-14.05,35.31-3.18,37.79-3.18,38.76.8,45.72-.73,65-5,22.83-6.21,59.61.71,83.31-.18,101.7-1,45-10,55.72-15.91,10.76-17.77,10.76-4.71-1.86-6.17-6.55-2.92-7.66-.86-18.55.73-16.21.73-16.55-.6-49.93-3.51-97.66-8-45.79-8-49.38-1-3,1.19-15.66-2.92-23.24-3.38-25.59.07-41.38-6.7-39-10.41,3.45-10.41,20.28-1.39,35.66-3.51,40.9-3.18,4.14-8,9-5.44,9.52-5.44,9.52-1,7.45-17.37-1.52c-18.52-10.15-10.61-53.79-8.09-76.83s2.17-44.23-6.5-74.21-8-138.3-8-138.3-1.94-42.48-5.75-65.47S375.84,917.26,380.7,906.32Z" transform="translate(-48.74 -55.92)"/><line class="cls-11" x1="130.59" y1="999.88" x2="130.59" y2="1044.87"/><line class="cls-11" x1="146.36" y1="999.88" x2="146.36" y2="1044.87"/><line class="cls-11" x1="162.14" y1="999.88" x2="162.14" y2="1044.87"/><line class="cls-11" x1="177.91" y1="999.88" x2="177.91" y2="1044.87"/><line class="cls-11" x1="130.59" y1="999.88" x2="130.59" y2="1044.87"/><line class="cls-11" x1="146.36" y1="999.88" x2="146.36" y2="1044.87"/><line class="cls-11" x1="193.68" y1="999.88" x2="193.68" y2="1044.87"/><line class="cls-11" x1="83.27" y1="999.88" x2="83.27" y2="1044.87"/><line class="cls-11" x1="99.04" y1="999.88" x2="99.04" y2="1044.87"/><line class="cls-11" x1="114.82" y1="999.88" x2="114.82" y2="1044.87"/><line class="cls-11" x1="713.17" y1="999.88" x2="713.17" y2="1044.88"/><line class="cls-11" x1="728.94" y1="999.88" x2="728.94" y2="1044.88"/><line class="cls-11" x1="744.72" y1="999.88" x2="744.72" y2="1044.88"/><line class="cls-11" x1="760.5" y1="999.88" x2="760.5" y2="1044.88"/><line class="cls-11" x1="713.17" y1="999.88" x2="713.17" y2="1044.88"/><line class="cls-11" x1="728.94" y1="999.88" x2="728.94" y2="1044.88"/><line class="cls-11" x1="776.27" y1="999.88" x2="776.27" y2="1044.88"/><line class="cls-11" x1="665.84" y1="999.88" x2="665.84" y2="1044.88"/><line class="cls-11" x1="681.61" y1="999.88" x2="681.61" y2="1044.88"/><line class="cls-11" x1="697.39" y1="999.88" x2="697.39" y2="1044.88"/></svg>