<svg id="Layer_1" data-name="Layer 1" xmlns="http://www.w3.org/2000/svg" viewBox="0 0 216 19.26"><title>Mondocool-Black</title><path d="M5.57,2.38H10.2L13.86,12l3.88-9.65h4.67l2.73,18.06H20.45L19.13,10h0L14.75,20.43H12.88L8.74,10h0L7.18,20.43H2.51Z" transform="translate(-2.51 -1.78)"/><path d="M46.21,11.07a9.6,9.6,0,0,1-10,10,9.6,9.6,0,0,1-10-10c0-5.46,4.79-9.29,10-9.29S46.21,5.61,46.21,11.07Zm-15.09,0a5.11,5.11,0,1,0,10.2,0,5.11,5.11,0,0,0-10.2,0Z" transform="translate(-2.51 -1.78)"/><path d="M48.4,2.38h4.69l8.6,11h0v-11h4.69V20.43H61.74L53.14,9.37h0V20.43H48.4Z" transform="translate(-2.51 -1.78)"/><path d="M69.51,2.38h6.66a9,9,0,1,1,0,18.06H69.51ZM74.2,16.46h1.05c2.8,0,5.2-1.53,5.2-5.05,0-3.23-2.13-5.05-5.15-5.05H74.2Z" transform="translate(-2.51 -1.78)"/><path d="M106.59,11.07a10,10,0,0,1-20,0c0-5.46,4.79-9.29,10-9.29S106.59,5.61,106.59,11.07Zm-15.09,0a5.11,5.11,0,1,0,10.2,0,5.11,5.11,0,0,0-10.2,0Z" transform="translate(-2.51 -1.78)"/><path d="M121.69,8.43a5.1,5.1,0,0,0-4.12-2,4.76,4.76,0,0,0-4.81,5,4.68,4.68,0,0,0,4.89,4.91,5.4,5.4,0,0,0,4-1.92v5.63a13.29,13.29,0,0,1-4.14.84,10.05,10.05,0,0,1-6.78-2.66,8.83,8.83,0,0,1-2.9-6.83,9.45,9.45,0,0,1,2.66-6.61A9.79,9.79,0,0,1,117.4,1.9a11,11,0,0,1,4.29.91Z" transform="translate(-2.51 -1.78)"/><path d="M143.66,11.07a10,10,0,0,1-20,0c0-5.46,4.79-9.29,10-9.29S143.66,5.61,143.66,11.07Zm-15.09,0a5.11,5.11,0,1,0,10.2,0,5.11,5.11,0,0,0-10.2,0Z" transform="translate(-2.51 -1.78)"/><path d="M164.92,11.07a10,10,0,0,1-20,0c0-5.46,4.79-9.29,10-9.29S164.92,5.61,164.92,11.07Zm-15.09,0a5.11,5.11,0,1,0,10.2,0,5.11,5.11,0,0,0-10.2,0Z" transform="translate(-2.51 -1.78)"/><path d="M171.8,16.46h5.63v4H167.11V2.38h4.69Z" transform="translate(-2.51 -1.78)"/><path d="M185.8,18.11a2.8,2.8,0,1,1-2.8-2.8A2.8,2.8,0,0,1,185.8,18.11Z" transform="translate(-2.51 -1.78)"/><path d="M194.37,20.43h-4.69V6.35H185.8v-4h12.45v4h-3.88Z" transform="translate(-2.51 -1.78)"/><path d="M209,13.34l4.38-11h5.1L210.8,20.43h-3.64L199.57,2.38h5.1Z" transform="translate(-2.51 -1.78)"/></svg>