<svg id="Layer_1" data-name="Layer 1" xmlns="http://www.w3.org/2000/svg" viewBox="0 0 218.7 21.26"><title>Mondocool-White</title><path d="M22.41,2.38l2.73,18.06H20.45L19.13,10h0L14.75,20.43H12.88L8.74,10h0L7.18,20.43H2.51L5.57,2.38H10.2L13.86,12l3.88-9.65h4.67m.86-1H17.06L16.81,2,13.89,9.28,11.13,2l-.24-.65H4.73l-.14.83L1.52,20.27l-.2,1.17H8l.12-.86,1-6.79,2.8,7,.25.63h3.21l.26-.62,2.93-7,.86,6.76.11.87H26.3l-.17-1.15L23.4,2.23l-.13-.85Z" transform="translate(-1.33 -0.78)"/><path d="M36.22,1.78c5.2,0,10,3.83,10,9.29a9.6,9.6,0,0,1-10,10,9.6,9.6,0,0,1-10-10c0-5.46,4.79-9.29,10-9.29m0,14.7a5.17,5.17,0,0,0,5.1-5.39,5.11,5.11,0,0,0-10.2,0,5.17,5.17,0,0,0,5.1,5.39m0-15.7c-6.06,0-11,4.62-11,10.29a10.61,10.61,0,0,0,11,11,10.62,10.62,0,0,0,11-11c0-5.68-4.93-10.29-11-10.29Zm0,14.7a4.16,4.16,0,0,1-4.1-4.39,4.12,4.12,0,0,1,8.2,0,4.16,4.16,0,0,1-4.1,4.39Z" transform="translate(-1.33 -0.78)"/><path d="M66.43,2.38V20.43H61.74L53.14,9.37h0V20.43H48.4V2.38h4.69l8.6,11h0v-11h4.69m1-1H60.74v9.19l-6.86-8.8-.3-.39H47.4V21.43h6.69V12.22L60.95,21l.3.39h6.18V1.38Z" transform="translate(-1.33 -0.78)"/><path d="M76.17,2.38a9,9,0,1,1,0,18.06H69.51V2.38h6.66m-2,14.08h1.05c2.8,0,5.2-1.53,5.2-5.05,0-3.23-2.13-5.05-5.15-5.05H74.2V16.46m2-15.08H68.51V21.43h7.66a10.11,10.11,0,0,0,10.17-10,10.11,10.11,0,0,0-10.17-10Zm-1,6h.1c2.6,0,4.15,1.52,4.15,4.05,0,3.66-2.94,4.05-4.2,4.05H75.2V7.35Z" transform="translate(-1.33 -0.78)"/><path d="M96.6,1.78c5.2,0,10,3.83,10,9.29a10,10,0,0,1-20,0c0-5.46,4.79-9.29,10-9.29m0,14.7a5.17,5.17,0,0,0,5.1-5.39,5.11,5.11,0,0,0-10.2,0,5.17,5.17,0,0,0,5.1,5.39m0-15.7c-6.06,0-11,4.62-11,10.29a11,11,0,0,0,22,0c0-5.68-4.93-10.29-11-10.29Zm0,14.7a4.16,4.16,0,0,1-4.1-4.39,4.12,4.12,0,0,1,8.2,0,4.16,4.16,0,0,1-4.1,4.39Z" transform="translate(-1.33 -0.78)"/><path d="M117.4,1.9a11,11,0,0,1,4.29.91V8.43a5.1,5.1,0,0,0-4.12-2,4.76,4.76,0,0,0-4.81,5,4.68,4.68,0,0,0,4.89,4.91,5.4,5.4,0,0,0,4-1.92v5.63a13.29,13.29,0,0,1-4.14.84,10.05,10.05,0,0,1-6.78-2.66,8.83,8.83,0,0,1-2.9-6.83,9.45,9.45,0,0,1,2.66-6.61A9.79,9.79,0,0,1,117.4,1.9m0-1a10.81,10.81,0,0,0-7.59,3.22,10.42,10.42,0,0,0-2.94,7.31A9.77,9.77,0,0,0,110.1,19a11.06,11.06,0,0,0,7.45,2.92,13.78,13.78,0,0,0,4.32-.84l.12,0,.71-.22V11.69l-1.77,2.11a4.4,4.4,0,0,1-3.28,1.56,3.69,3.69,0,0,1-3.89-3.91,3.74,3.74,0,0,1,3.81-4A4.11,4.11,0,0,1,120.89,9l1.8,2.44V2.14l-.62-.26a12.05,12.05,0,0,0-4.67-1Z" transform="translate(-1.33 -0.78)"/><path d="M133.68,1.78c5.2,0,10,3.83,10,9.29a10,10,0,0,1-20,0c0-5.46,4.79-9.29,10-9.29m0,14.7a5.17,5.17,0,0,0,5.1-5.39,5.11,5.11,0,0,0-10.2,0,5.17,5.17,0,0,0,5.1,5.39m0-15.7c-6.06,0-11,4.62-11,10.29a11,11,0,0,0,22,0c0-5.68-4.93-10.29-11-10.29Zm0,14.7a4.16,4.16,0,0,1-4.1-4.39,4.12,4.12,0,0,1,8.2,0,4.16,4.16,0,0,1-4.1,4.39Z" transform="translate(-1.33 -0.78)"/><path d="M154.93,1.78c5.2,0,10,3.83,10,9.29a10,10,0,0,1-20,0c0-5.46,4.79-9.29,10-9.29m0,14.7a5.17,5.17,0,0,0,5.1-5.39,5.11,5.11,0,0,0-10.2,0,5.17,5.17,0,0,0,5.1,5.39m0-15.7c-6.06,0-11,4.62-11,10.29a11,11,0,0,0,22,0c0-5.68-4.93-10.29-11-10.29Zm0,14.7a4.16,4.16,0,0,1-4.1-4.39,4.12,4.12,0,0,1,8.2,0,4.16,4.16,0,0,1-4.1,4.39Z" transform="translate(-1.33 -0.78)"/><path d="M171.8,2.38V16.46h5.63v4H167.11V2.38h4.69m1-1h-6.69V21.43h12.32v-6H172.8V1.38Z" transform="translate(-1.33 -0.78)"/><path d="M183,15.31a2.8,2.8,0,1,1-2.8,2.8,2.79,2.79,0,0,1,2.8-2.8m0-1a3.8,3.8,0,1,0,3.8,3.8,3.81,3.81,0,0,0-3.8-3.8Z" transform="translate(-1.33 -0.78)"/><path d="M198.25,2.38v4h-3.88V20.43h-4.69V6.35H185.8v-4h12.45m1-1H184.8v6h3.88V21.43h6.69V7.35h3.88v-6Z" transform="translate(-1.33 -0.78)"/><path d="M218.51,2.38,210.8,20.43h-3.64L199.57,2.38h5.1l4.36,11,4.38-11h5.1m1.51-1h-7.29l-.25.63L209,10.64,205.6,2l-.25-.63h-7.29l.58,1.39,7.59,18.06.26.61h5l.26-.61,7.71-18.06L220,1.38Z" transform="translate(-1.33 -0.78)"/></svg>