<svg id="MC" xmlns="http://www.w3.org/2000/svg" viewBox="0 0 865 1445.19"><defs><style>.cls-1,.cls-2{fill:#231f20;stroke-miterlimit:10;}.cls-1{stroke:#000;stroke-width:18px;}.cls-2{stroke:#fff;}.cls-3{fill:#fff;}.cls-4{fill:#6cf;}.cls-5{fill:#ed3868;}.cls-6{fill:#9f6;}</style></defs><title>Simplified-Logo</title><path class="cls-1" d="M537.87,382.17,817.94,102.32l2.91-2.91,4,.8a20.55,20.55,0,0,0,4,.39,20.34,20.34,0,1,0-20-16.37l.8,4-2.92,2.91-291.2,291h-59l-291.2-291-2.92-2.91.8-4a20.37,20.37,0,1,0-20,16.37,20.55,20.55,0,0,0,4-.39l4-.8,2.91,2.91L434.31,382.17H62.24v719.37h837V382.17Z" transform="translate(-48.24 -50.92)"/><rect class="cls-2" x="0.5" y="315.04" width="864" height="750.61" rx="27" ry="27"/><path class="cls-3" d="M818.4,987a29.88,29.88,0,0,1-29.79,29.79H172.88A29.88,29.88,0,0,1,143.09,987V470.56a29.88,29.88,0,0,1,29.79-29.79H788.6a29.88,29.88,0,0,1,29.79,29.79Z" transform="translate(-48.24 -50.92)"/><polygon class="cls-4" points="70.57 495.58 202.5 462.48 193.55 509.19 423.12 445.93 419.76 491.54 609.82 445.93 608.33 489.33 775.66 453.28 772.67 505.14 805.47 498.52 805.47 626.16 690.69 651.17 694.79 608.5 494.67 648.23 501 604.09 300.13 657.05 302.74 606.66 88.83 664.41 95.17 618.8 70.57 625.42 70.57 495.58"/><polygon class="cls-4" points="70.57 762.62 202.5 729.52 193.55 776.23 423.12 712.96 419.76 758.57 609.82 712.96 608.33 756.37 775.66 720.32 772.67 772.18 805.47 765.56 805.47 893.19 690.69 918.21 694.79 875.54 494.67 915.26 501 871.13 300.13 924.09 302.74 873.7 88.83 931.45 95.17 885.84 70.57 892.46 70.57 762.62"/><g id="Lips"><path d="M323.32,892.62c61.79,28,183.91,40.46,269.61,10.3S794.78,786.81,785.85,783.56c-8.09-2.94-50.94,7.91-90.67,16.74S626,815.38,607.27,815.38s-44.51,0-62.9,1.1-37.14,12.54-38.54,13.2c-16.27,7.76-44.59,9.24-72.54-5.84-25.26-13.63-48.18-9.56-48.18-9.56s-24.64,7-58.48,4.41-76.51-15.45-119.17-27.59-37.89-5.89-37.89-5.89S261.52,864.67,323.32,892.62Z" transform="translate(-48.24 -50.92)"/></g><g id="Teeth"><path class="cls-3" d="M607.73,815.38c-18.76,0-44.51,0-62.9,1.1S507.69,829,506.3,829.68c-16.27,7.76-44.59,9.24-72.54-5.84-25.26-13.63-48.18-9.56-48.18-9.56s-24.64,7-58.48,4.41c-19.64-1.49-42.26-6.47-66.12-12.74,3.61,8.46,13.19,30.32,17.07,33.75,4.83,4.28,27.59,18.76,35.45,18.62s8.83-5.79,8.83-5.79,2.62,10.76,16.83,17.1,20,8,32.14,8.49,15.86.06,17.79-8.21,2.48-4.23,2.48-4.23l3.17,11.4c.69,2.48.28,4.69,8.28,9.24s14.21,4.14,14.21,4.14l48.41-.55a10.59,10.59,0,0,0,7.31-5.93,69.21,69.21,0,0,0,3-8.92l2.21,10.3s5.52,5.38,13,6.62,53-2.48,53-2.48,11.78.66,17.24-21c0,0,.83,5,2.07,7.3a8.38,8.38,0,0,0,3,3.31l26.07-.41s18.48-7.17,25.93-13.66a33,33,0,0,0,9.66-14.21s1.38,7.17,3.72,7.86A19.34,19.34,0,0,0,646,857.36c6.48-3.17,12.69-3.86,35.45-31.59A5.17,5.17,0,0,0,683,823c.81-3.21,0-13,0-13v-7C649.63,810.41,624.44,815.38,607.73,815.38Z" transform="translate(-48.24 -50.92)"/></g><g id="Lips-2" data-name="Lips"><path class="cls-5" d="M162,786.5s-6.34-7.26,5.7-7.36S195,780.44,195,780.44a111.45,111.45,0,0,0,31.08-1.29c17.1-3.12,66.39-12.69,104.28-28.13S436,756.34,436,756.34s41.93,15.08,102.07-4.23,137.75,7.36,137.75,7.36S721.75,779,788,776c0,0,10.67-2.21,0,14.9S742.9,861.72,637.7,957,371,1003.7,310.35,949.26,162,786.5,162,786.5Zm162.3,106.11c61.79,28,183.91,40.46,269.61,10.3S795.78,786.81,786.85,783.56c-8.09-2.94-50.94,7.91-90.67,16.74S627,815.38,608.28,815.38s-44.51,0-62.9,1.1-37.14,12.54-38.54,13.2c-16.27,7.76-44.59,9.24-72.54-5.84-25.26-13.63-48.18-9.56-48.18-9.56s-24.64,7-58.48,4.41-76.51-15.45-119.17-27.59-37.89-5.89-37.89-5.89S262.53,864.67,324.32,892.62Z" transform="translate(-48.24 -50.92)"/></g><path class="cls-6" d="M380.7,906.32s1.77-5.52,10.08-5.89S414,902.18,414,902.18s42.3,5.24,50.38,7,21.88,3.31,41.24,0S543.7,899.42,554,898.6,579.5,896.8,588.11,912s8.35,25.93,7,39.45-10.28,41.1.7,65.66a48.35,48.35,0,0,1,4.87,19.72c.13,10.76-.8,22.62,0,34.9s4.11,13.79,2.92,42.48-2,25.79-5,41.24-2.39,7.31-4.77,18.62-7,13.1-10.21,9.1-17.1-18.76-16.84-34.48,1.06-17.24.27-20.14-2.65-9.24-5-7.31-2.65,6.34-2.65,14.07.53,14.21-3.71,22.21-8.75,6.34-11.67,2.21-6.89-10.07-7.42-16.14-.27-16.41-4.11-14.34-10.47,7.72-14.05,35.31-3.18,37.79-3.18,38.76.8,45.72-.73,65-5,22.83-6.21,59.61.71,83.31-.18,101.7-1,45-10,55.72-15.91,10.76-17.77,10.76-4.71-1.86-6.17-6.55-2.92-7.66-.86-18.55.73-16.21.73-16.55-.6-49.93-3.51-97.66-8-45.79-8-49.38-1-3,1.19-15.66-2.92-23.24-3.38-25.59.07-41.38-6.7-39-10.41,3.45-10.41,20.28-1.39,35.66-3.51,40.9-3.18,4.14-8,9-5.44,9.52-5.44,9.52-1,7.45-17.37-1.52c-18.52-10.15-10.61-53.79-8.09-76.83s2.17-44.23-6.5-74.21-8-138.3-8-138.3-1.94-42.48-5.75-65.47S375.84,917.26,380.7,906.32Z" transform="translate(-48.24 -50.92)"/></svg>