<svg id="MC" xmlns="http://www.w3.org/2000/svg" viewBox="0 0 734.9 999.26"><defs><style>.cls-1{fill:#6cf;}.cls-2{fill:#fff;}.cls-3{fill:#ed3868;}.cls-4{fill:#9f6;}</style></defs><title>SuperSimple</title><polygon class="cls-1" points="0 49.66 131.92 16.55 122.98 63.26 352.54 0 349.19 45.61 539.25 0 537.76 43.4 705.08 7.36 702.1 59.22 734.9 52.6 734.9 180.23 620.12 205.24 624.22 162.57 424.09 202.3 430.43 158.16 229.56 211.13 232.17 160.74 18.26 218.48 24.6 172.87 0 179.49 0 49.66"/><polygon class="cls-1" points="0 316.69 131.92 283.59 122.98 330.3 352.54 267.04 349.19 312.65 539.25 267.04 537.76 310.44 705.08 274.39 702.1 326.26 734.9 319.64 734.9 447.27 620.12 472.28 624.22 429.61 424.09 469.34 430.43 425.2 229.56 478.17 232.17 427.77 18.26 485.52 24.6 439.91 0 446.53 0 316.69"/><g id="Lips"><path d="M243.74,434.83c61.79,28,183.91,40.46,269.61,10.3S715.2,329,706.27,325.77c-8.09-2.94-50.94,7.91-90.67,16.74s-69.15,15.08-87.91,15.08-44.51,0-62.9,1.1-37.14,12.54-38.54,13.2c-16.27,7.76-44.59,9.24-72.54-5.84-25.26-13.63-48.18-9.56-48.18-9.56s-24.64,7-58.48,4.41-76.51-15.45-119.17-27.59S90,327.43,90,327.43,181.95,406.88,243.74,434.83Z" transform="translate(-39.24 -39.06)"/></g><g id="Teeth"><path class="cls-2" d="M528.16,357.59c-18.76,0-44.51,0-62.9,1.1s-37.14,12.54-38.54,13.2c-16.27,7.76-44.59,9.24-72.54-5.84-25.26-13.63-48.18-9.56-48.18-9.56s-24.64,7-58.48,4.41c-19.64-1.49-42.26-6.47-66.12-12.74,3.61,8.46,13.19,30.32,17.07,33.75,4.83,4.28,27.59,18.76,35.45,18.62s8.83-5.79,8.83-5.79,2.62,10.76,16.83,17.1,20,8,32.14,8.49,15.86.06,17.79-8.21,2.48-4.23,2.48-4.23l3.17,11.4c.69,2.48.28,4.69,8.28,9.24s14.21,4.14,14.21,4.14l48.41-.55a10.59,10.59,0,0,0,7.31-5.93,69.21,69.21,0,0,0,3-8.92l2.21,10.3s5.52,5.38,13,6.62,53-2.48,53-2.48,11.78.66,17.24-21c0,0,.83,5,2.07,7.3a8.38,8.38,0,0,0,3,3.31l26.07-.41s18.48-7.17,25.93-13.66a33,33,0,0,0,9.66-14.21s1.38,7.17,3.72,7.86a19.34,19.34,0,0,0,14.21-1.38c6.48-3.17,12.69-3.86,35.45-31.59a5.17,5.17,0,0,0,1.52-2.76c.81-3.21,0-13,0-13v-7C570.05,352.62,544.86,357.59,528.16,357.59Z" transform="translate(-39.24 -39.06)"/></g><g id="Lips-2" data-name="Lips"><path class="cls-3" d="M82.45,328.72s-6.34-7.26,5.7-7.36,27.31,1.29,27.31,1.29a111.45,111.45,0,0,0,31.08-1.29c17.1-3.12,66.39-12.69,104.28-28.13s105.56,5.33,105.56,5.33,41.93,15.08,102.07-4.23,137.75,7.36,137.75,7.36,46,19.49,112.18,16.55c0,0,10.67-2.21,0,14.9s-45.06,70.8-150.25,166.07-266.67,46.71-327.36-7.72S82.45,328.72,82.45,328.72Zm162.3,106.11c61.79,28,183.91,40.46,269.61,10.3S716.21,329,707.28,325.77c-8.09-2.94-50.94,7.91-90.67,16.74s-69.15,15.08-87.91,15.08-44.51,0-62.9,1.1-37.14,12.54-38.54,13.2c-16.27,7.76-44.59,9.24-72.54-5.84-25.26-13.63-48.18-9.56-48.18-9.56s-24.64,7-58.48,4.41-76.51-15.45-119.17-27.59S91,327.43,91,327.43,183,406.88,244.75,434.83Z" transform="translate(-39.24 -39.06)"/></g><path class="cls-4" d="M301.13,448.53s1.77-5.52,10.08-5.89,23.25,1.75,23.25,1.75,42.3,5.24,50.38,7,21.88,3.31,41.24,0,38.05-9.79,48.39-10.62,25.46-1.79,34.08,13.38,8.35,25.93,7,39.45-10.28,41.1.7,65.66A48.35,48.35,0,0,1,521.13,579c.13,10.76-.8,22.62,0,34.9s4.11,13.79,2.92,42.48-2,25.79-5,41.24-2.39,7.31-4.77,18.62-7,13.1-10.21,9.1-17.1-18.76-16.84-34.48,1.06-17.24.27-20.14-2.65-9.24-5-7.31-2.65,6.34-2.65,14.07.53,14.21-3.71,22.21-8.75,6.34-11.67,2.21-6.89-10.07-7.42-16.14-.27-16.41-4.11-14.34-10.47,7.72-14.05,35.31-3.18,37.79-3.18,38.76.8,45.72-.73,65-5,22.83-6.21,59.61.71,83.31-.18,101.7-1,45-10,55.72-15.91,10.76-17.77,10.76-4.71-1.86-6.17-6.55-2.92-7.66-.86-18.55.73-16.21.73-16.55-.6-49.93-3.51-97.66-8-45.79-8-49.38-1-3,1.19-15.66-2.92-23.24-3.38-25.59.07-41.38-6.7-39-10.41,3.45-10.41,20.28-1.39,35.66-3.51,40.9-3.18,4.14-8,9-5.44,9.52-5.44,9.52-1,7.45-17.37-1.52c-18.52-10.15-10.61-53.79-8.09-76.83s2.17-44.23-6.5-74.21-8-138.3-8-138.3-1.94-42.48-5.75-65.47S296.26,459.48,301.13,448.53Z" transform="translate(-39.24 -39.06)"/></svg>